<svg width="42" height="44" viewBox="0 0 42 44" fill="none" xmlns="http://www.w3.org/2000/svg">
<path d="M0.96451 25.3333C0.321503 25.3333 0 25.0074 0 24.3556V19.3778C0 18.7259 0.321503 18.4 0.96451 18.4H14.4676C15.4614 18.4 16.2505 18.1037 16.8351 17.5111C17.4781 16.8593 17.7996 16.0296 17.7996 15.0222V0.977775C17.7996 0.325924 18.0919 0 18.6764 0H23.5866C24.2296 0 24.5511 0.325924 24.5511 0.977775V13.3333C24.5511 13.9852 24.3466 14.5185 23.9374 14.9333L14.38 24.6222C13.9123 25.0963 13.3862 25.3333 12.8017 25.3333H0.96451ZM41.0355 18.4889C41.6785 18.4889 42 18.8148 42 19.4667V24.3556C42 25.0074 41.6785 25.3333 41.0355 25.3333H27.5324C26.5386 25.3333 25.7203 25.6593 25.0772 26.3111C24.4927 26.9037 24.2004 27.7037 24.2004 28.7111V43.0222C24.2004 43.6741 23.8789 44 23.2359 44H18.3257C17.7411 44 17.4489 43.6741 17.4489 43.0222V30.4C17.4489 29.8074 17.6534 29.2741 18.0626 28.8L27.62 19.2C28.0292 18.7259 28.5261 18.4889 29.1106 18.4889H41.0355Z" fill="#D8D9DD"/>
</svg>
