<svg width="336" height="237" viewBox="0 0 336 237" fill="none" xmlns="http://www.w3.org/2000/svg">
<path fill-rule="evenodd" clip-rule="evenodd" d="M208.005 45.2644C208.005 42.7873 207.132 40.7605 205.387 39.1841L164.609 2.36457C162.863 0.78819 160.743 0 158.249 0H50.1308C47.3873 0 45.1427 0.78819 43.3968 2.36457L2.61877 39.1841C0.872925 40.7605 0 42.7873 0 45.2644V191.192C0 193.669 0.872925 195.696 2.61877 197.272L43.3968 234.092C45.1427 235.668 47.3873 236.456 50.1308 236.456H157.875C160.369 236.456 162.613 235.668 164.609 234.092L205.012 197.272C207.008 195.47 208.005 193.444 208.005 191.192V45.2644ZM29.1806 38.8464C29.1806 30.5141 33.9193 26.348 43.3968 26.348H164.983C171.966 26.348 176.455 29.0503 178.451 34.455L179.199 69.5856V197.61C179.199 201.438 177.827 204.478 175.084 206.73C172.59 208.982 169.223 210.108 164.983 210.108H43.3968C36.164 210.108 31.55 207.293 29.5547 201.663L29.1806 166.195V38.8464Z" fill="#3A393E" fill-opacity="0.12"/>
<path d="M236.486 0H285.869C288.612 0 290.857 0.78819 292.603 2.36457L333.381 39.1841C335.127 40.7605 336 42.7873 336 45.2644V227.357L336 232.352C336 234.829 334.628 236.068 331.884 236.068H310.934C308.191 236.068 306.819 234.829 306.819 232.352L306.819 227.357V38.8464C306.819 30.5141 302.205 26.348 292.977 26.348H236.486C233.743 26.348 232.371 25.1094 232.371 22.6322V3.71573C232.371 1.23858 233.743 0 236.486 0Z" fill="#3A393E" fill-opacity="0.12"/>
</svg>
