<svg width="413" height="237" viewBox="0 0 413 237" fill="none" xmlns="http://www.w3.org/2000/svg">
<path fill-rule="evenodd" clip-rule="evenodd" d="M187.814 45.2644C187.814 42.7873 187.025 40.7605 185.449 39.1841L148.63 2.36457C147.053 0.78819 145.139 0 142.887 0H45.2644C42.7873 0 40.7605 0.78819 39.1841 2.36457L2.36456 39.1841C0.788187 40.7605 0 42.7873 0 45.2644V191.192C0 193.669 0.788187 195.696 2.36456 197.272L39.1841 234.092C40.7605 235.668 42.7873 236.456 45.2644 236.456H142.549C144.801 236.456 146.828 235.668 148.63 234.092L185.111 197.272C186.913 195.47 187.814 193.444 187.814 191.192V45.2644ZM26.348 38.8464C26.348 30.5141 30.6267 26.348 39.1841 26.348H148.967C155.273 26.348 159.326 29.0503 161.128 34.455L161.803 69.5856V197.61C161.803 201.438 160.565 204.478 158.088 206.73C155.836 208.982 152.796 210.108 148.967 210.108H39.1841C32.6535 210.108 28.4873 207.293 26.6858 201.663L26.348 166.195V38.8464Z" fill="#3A393E" fill-opacity="0.12"/>
<path d="M410.599 29.0211C412.175 30.5974 412.963 32.6242 412.963 35.1014V87.8265C412.963 90.0785 412.175 91.9927 410.599 93.5691L373.779 130.389C372.203 131.965 369.726 132.753 366.348 132.753H293.046L249.471 176.329V197.61C249.471 201.438 250.597 204.478 252.849 206.73C255.326 208.982 258.479 210.108 262.307 210.108H409.586C411.837 210.108 412.963 211.347 412.963 213.824V232.74C412.963 235.217 411.837 236.456 409.586 236.456H268.387C266.586 236.456 264.559 235.555 262.307 233.754L225.825 207.097C224.024 205.521 223.123 203.607 223.123 201.355V170.248C223.123 167.771 224.024 165.744 225.825 164.168L280.548 109.108C282.124 107.531 284.039 106.743 286.291 106.743H374.117C377.945 106.743 380.986 105.617 383.238 103.365C385.715 100.888 386.953 97.7352 386.953 93.9068V38.8464C386.953 35.018 385.715 31.9779 383.238 29.7259C380.986 27.4739 377.945 26.348 374.117 26.348H264.334C256.002 26.348 251.836 30.5141 251.836 38.8464V73.6392C251.836 76.1163 250.597 77.3549 248.12 77.3549H229.203C226.726 77.3549 225.488 76.1163 225.488 73.6392V35.1014C225.488 32.6242 226.276 30.5974 227.852 29.0211L264.672 2.36457C266.248 0.78819 268.275 0 270.752 0H368.037C370.289 0 372.203 0.78819 373.779 2.36457L410.599 29.0211Z" fill="#3A393E" fill-opacity="0.12"/>
</svg>
