<svg width="411" height="237" viewBox="0 0 411 237" fill="none" xmlns="http://www.w3.org/2000/svg">
<path fill-rule="evenodd" clip-rule="evenodd" d="M187.814 45.2644C187.814 42.7873 187.025 40.7605 185.449 39.1841L148.63 2.36457C147.053 0.78819 145.139 0 142.887 0H45.2644C42.7873 0 40.7605 0.78819 39.1841 2.36457L2.36456 39.1841C0.788187 40.7605 0 42.7873 0 45.2644V191.192C0 193.669 0.788187 195.696 2.36456 197.272L39.1841 234.092C40.7605 235.668 42.7873 236.456 45.2644 236.456H142.549C144.801 236.456 146.828 235.668 148.63 234.092L185.111 197.272C186.913 195.47 187.814 193.444 187.814 191.192V45.2644ZM26.348 38.8464C26.348 30.5141 30.6267 26.348 39.1841 26.348H148.967C155.273 26.348 159.326 29.0503 161.128 34.455L161.803 69.5856V197.61C161.803 201.438 160.565 204.478 158.088 206.73C155.836 208.982 152.796 210.108 148.967 210.108H39.1841C32.6535 210.108 28.4873 207.293 26.6858 201.663L26.348 166.195V38.8464Z" fill="#3A393E" fill-opacity="0.12"/>
<path d="M268.387 0H366.01C368.037 0 369.951 0.900787 371.753 2.70236L408.572 39.522C410.149 41.0983 410.937 43.0125 410.937 45.2644V90.8895C410.937 93.1414 410.149 95.1682 408.572 96.9698L338.311 132.386C336.059 134.188 334.257 134.188 332.906 132.386L320.408 119.55C318.381 117.523 318.381 115.722 320.408 114.145L384.927 84.8092V38.8464C384.927 35.018 383.688 31.9779 381.211 29.7259C378.959 27.4739 375.919 26.348 372.09 26.348H262.307C253.75 26.348 249.471 30.5141 249.471 38.8464V73.6392C249.471 76.1163 248.232 77.3549 245.755 77.3549H226.839C224.362 77.3549 223.123 76.1163 223.123 73.6392V45.2644C223.123 42.7873 223.911 40.7605 225.488 39.1841L262.307 2.36457C263.884 0.78819 265.91 0 268.387 0ZM388.304 123.295L408.572 143.563C410.149 145.139 410.937 147.053 410.937 149.305V191.529C410.937 194.007 410.149 196.033 408.572 197.61L371.753 234.429C370.176 236.006 368.262 236.794 366.01 236.794L268.725 236.456C266.248 236.456 264.221 235.668 262.645 234.092L225.825 197.272C224.024 195.47 223.123 193.444 223.123 191.192V162.817C223.123 160.34 224.362 159.101 226.839 159.101H245.755C248.232 159.101 249.471 160.34 249.471 162.817V197.61C249.471 205.942 253.75 210.108 262.307 210.108L372.09 210.446C375.919 210.446 378.959 209.32 381.211 207.068C383.688 204.591 384.927 201.438 384.927 197.61V124.646C384.927 121.493 386.053 121.043 388.304 123.295Z" fill="#3A393E" fill-opacity="0.12"/>
</svg>
