<svg width="1280" height="194" viewBox="0 0 1280 194" fill="none" xmlns="http://www.w3.org/2000/svg">
<g clip-path="url(#clip0_205_7)">
<path fill-rule="evenodd" clip-rule="evenodd" d="M51.8137 45.2644C51.8137 42.7873 51.0255 40.7605 49.4491 39.1841L12.6295 2.36457C11.0531 0.78819 9.13896 0 6.88701 0H-90.7356C-93.2127 0 -95.2395 0.78819 -96.8159 2.36457L-133.635 39.1841C-135.212 40.7605 -136 42.7873 -136 45.2644V191.192C-136 193.669 -135.212 195.696 -133.635 197.272L-96.8159 234.092C-95.2395 235.668 -93.2127 236.456 -90.7356 236.456H6.54921C8.80118 236.456 10.8279 235.668 12.6295 234.092L49.1113 197.272C50.9129 195.47 51.8137 193.444 51.8137 191.192V45.2644ZM-109.652 38.8464C-109.652 30.5141 -105.373 26.348 -96.8159 26.348H12.9673C19.2728 26.348 23.3263 29.0503 25.1279 34.455L25.8035 69.5856V197.61C25.8035 201.438 24.5649 204.478 22.0878 206.73C19.8358 208.982 16.7957 210.108 12.9673 210.108H-96.8159C-103.347 210.108 -107.513 207.293 -109.314 201.663L-109.652 166.195V38.8464Z" fill="#3A393E" fill-opacity="0.12"/>
<path d="M83.1454 0H127.734C130.211 0 132.238 0.78819 133.815 2.36457L170.634 39.1841C172.211 40.7605 172.999 42.7873 172.999 45.2644V227.357V232.352C172.999 234.829 171.76 236.068 169.283 236.068H150.366C147.889 236.068 146.651 234.829 146.651 232.352V227.357V38.8464C146.651 30.5141 142.485 26.348 134.152 26.348H83.1454C80.6683 26.348 79.4297 25.1094 79.4297 22.6322V3.71573C79.4297 1.23858 80.6683 0 83.1454 0Z" fill="#3A393E" fill-opacity="0.12"/>
<path fill-rule="evenodd" clip-rule="evenodd" d="M502.294 45.2644C502.294 42.7873 501.506 40.7605 499.93 39.1841L463.11 2.36457C461.534 0.78819 459.619 0 457.367 0H359.745C357.268 0 355.241 0.78819 353.665 2.36457L316.845 39.1841C315.269 40.7605 314.48 42.7873 314.48 45.2644V191.192C314.48 193.669 315.269 195.696 316.845 197.272L353.665 234.092C355.241 235.668 357.268 236.456 359.745 236.456H457.03C459.282 236.456 461.308 235.668 463.11 234.092L499.592 197.272C501.393 195.47 502.294 193.444 502.294 191.192V45.2644ZM340.828 38.8464C340.828 30.5141 345.107 26.348 353.665 26.348H463.448C469.753 26.348 473.807 29.0503 475.608 34.455L476.284 69.5856V197.61C476.284 201.438 475.045 204.478 472.568 206.73C470.316 208.982 467.276 210.108 463.448 210.108H353.665C347.134 210.108 342.968 207.293 341.166 201.663L340.828 166.195V38.8464Z" fill="#3A393E" fill-opacity="0.12"/>
<path d="M725.078 29.0211C726.655 30.5974 727.443 32.6242 727.443 35.1014V87.8265C727.443 90.0785 726.655 91.9927 725.078 93.5691L688.26 130.389C686.683 131.965 684.206 132.753 680.828 132.753H607.526L563.951 176.329V197.61C563.951 201.438 565.076 204.478 567.328 206.73C569.806 208.982 572.959 210.108 576.788 210.108H724.065C726.317 210.108 727.443 211.347 727.443 213.824V232.74C727.443 235.217 726.317 236.456 724.065 236.456H582.867C581.065 236.456 579.04 235.555 576.788 233.754L540.306 207.097C538.504 205.521 537.604 203.607 537.604 201.355V170.248C537.604 167.771 538.504 165.744 540.306 164.168L595.029 109.108C596.605 107.531 598.519 106.743 600.771 106.743H688.598C692.426 106.743 695.466 105.617 697.718 103.365C700.195 100.888 701.434 97.7352 701.434 93.9068V38.8464C701.434 35.018 700.195 31.9779 697.718 29.7259C695.466 27.4739 692.426 26.348 688.598 26.348H578.814C570.482 26.348 566.315 30.5141 566.315 38.8464V73.6392C566.315 76.1163 565.076 77.3549 562.599 77.3549H543.684C541.207 77.3549 539.968 76.1163 539.968 73.6392V35.1014C539.968 32.6242 540.756 30.5974 542.333 29.0211L579.151 2.36457C580.728 0.78819 582.754 0 585.232 0H682.517C684.769 0 686.683 0.78819 688.26 2.36457L725.078 29.0211Z" fill="#3A393E" fill-opacity="0.12"/>
<path fill-rule="evenodd" clip-rule="evenodd" d="M1056.48 45.2644C1056.48 42.7873 1055.69 40.7605 1054.12 39.1841L1017.3 2.36457C1015.72 0.78819 1013.8 0 1011.55 0H913.93C911.453 0 909.427 0.78819 907.85 2.36457L871.031 39.1841C869.454 40.7605 868.666 42.7873 868.666 45.2644V191.192C868.666 193.669 869.454 195.696 871.031 197.272L907.85 234.092C909.427 235.668 911.453 236.456 913.93 236.456H1011.22C1013.47 236.456 1015.49 235.668 1017.3 234.092L1053.78 197.272C1055.58 195.47 1056.48 193.444 1056.48 191.192V45.2644ZM895.014 38.8464C895.014 30.5141 899.293 26.348 907.85 26.348H1017.63C1023.94 26.348 1027.99 29.0503 1029.79 34.455L1030.47 69.5856V197.61C1030.47 201.438 1029.23 204.478 1026.75 206.73C1024.5 208.982 1021.46 210.108 1017.63 210.108H907.85C901.319 210.108 897.153 207.293 895.352 201.663L895.014 166.195V38.8464Z" fill="#3A393E" fill-opacity="0.12"/>
<path d="M1137.05 0H1234.68C1236.7 0 1238.62 0.900787 1240.42 2.70236L1277.24 39.522C1278.81 41.0983 1279.6 43.0125 1279.6 45.2644V90.8895C1279.6 93.1414 1278.81 95.1682 1277.24 96.9698L1206.98 132.386C1204.72 134.188 1202.92 134.188 1201.57 132.386L1189.07 119.55C1187.05 117.523 1187.05 115.722 1189.07 114.145L1253.59 84.8092V38.8464C1253.59 35.018 1252.35 31.9779 1249.88 29.7259C1247.62 27.4739 1244.58 26.348 1240.76 26.348H1130.97C1122.42 26.348 1118.14 30.5141 1118.14 38.8464V73.6392C1118.14 76.1163 1116.9 77.3549 1114.42 77.3549H1095.5C1093.03 77.3549 1091.79 76.1163 1091.79 73.6392V45.2644C1091.79 42.7873 1092.58 40.7605 1094.15 39.1841L1130.97 2.36457C1132.55 0.78819 1134.58 0 1137.05 0ZM1256.97 123.295L1277.24 143.563C1278.81 145.139 1279.6 147.053 1279.6 149.305V191.529C1279.6 194.007 1278.81 196.033 1277.24 197.61L1240.42 234.429C1238.84 236.006 1236.93 236.794 1234.68 236.794L1137.39 236.456C1134.91 236.456 1132.89 235.668 1131.31 234.092L1094.49 197.272C1092.69 195.47 1091.79 193.444 1091.79 191.192V162.817C1091.79 160.34 1093.03 159.101 1095.5 159.101H1114.42C1116.9 159.101 1118.14 160.34 1118.14 162.817V197.61C1118.14 205.942 1122.42 210.108 1130.97 210.108L1240.76 210.446C1244.58 210.446 1247.62 209.32 1249.88 207.068C1252.35 204.591 1253.59 201.438 1253.59 197.61V124.646C1253.59 121.493 1254.72 121.043 1256.97 123.295Z" fill="#3A393E" fill-opacity="0.12"/>
</g>
<defs>
<clipPath id="clip0_205_7">
<rect width="1280" height="194" fill="white"/>
</clipPath>
</defs>
</svg>
