<svg width="169" height="62" viewBox="0 0 169 62" fill="none" xmlns="http://www.w3.org/2000/svg">
<g clip-path="url(#clip0_204_2)">
<path d="M35.9659 0H47.5566C48.2005 0 48.7273 0.204886 49.1371 0.614659L58.7082 10.1857C59.118 10.5955 59.3228 11.1224 59.3228 11.7663V59.1003V60.3988C59.3228 61.0428 59.0008 61.3647 58.3569 61.3647H53.4397C52.7957 61.3647 52.4738 61.0428 52.4738 60.3988V59.1003V10.0979C52.4738 7.93199 51.3908 6.84903 49.2249 6.84903H35.9659C35.322 6.84903 35 6.52707 35 5.88314V0.965887C35 0.321962 35.322 0 35.9659 0Z" fill="#EFF0F4"/>
<path fill-rule="evenodd" clip-rule="evenodd" d="M114.144 11.7663C114.144 11.1224 113.939 10.5955 113.529 10.1857L103.958 0.614659C103.548 0.204886 103.05 0 102.465 0H77.0885C76.4446 0 75.9178 0.204886 75.508 0.614659L65.9369 10.1857C65.5272 10.5955 65.3223 11.1224 65.3223 11.7663V49.6994C65.3223 50.3433 65.5272 50.8701 65.9369 51.2799L75.508 60.851C75.9178 61.2608 76.4446 61.4656 77.0885 61.4656H102.377C102.963 61.4656 103.49 61.2608 103.958 60.851L113.441 51.2799C113.909 50.8116 114.144 50.2848 114.144 49.6994V11.7663ZM72.1713 10.0979C72.1713 7.932 73.2835 6.84903 75.508 6.84903H104.046C105.685 6.84903 106.738 7.55149 107.207 8.95642L107.382 18.0885V51.3677C107.382 52.3629 107.06 53.1531 106.416 53.7385C105.831 54.3239 105.041 54.6166 104.046 54.6166H75.508C73.8104 54.6166 72.7274 53.8849 72.2591 52.4214L72.1713 43.2016V10.0979Z" fill="#EFF0F4"/>
<path fill-rule="evenodd" clip-rule="evenodd" d="M168.966 11.7663C168.966 11.1224 168.761 10.5955 168.351 10.1857L158.78 0.614659C158.37 0.204886 157.873 0 157.287 0H131.911C131.267 0 130.74 0.204886 130.33 0.614659L120.759 10.1857C120.349 10.5955 120.145 11.1224 120.145 11.7663V49.6994C120.145 50.3433 120.349 50.8701 120.759 51.2799L130.33 60.851C130.74 61.2608 131.267 61.4656 131.911 61.4656H157.2C157.785 61.4656 158.312 61.2608 158.78 60.851L168.263 51.2799C168.732 50.8116 168.966 50.2848 168.966 49.6994V11.7663ZM126.994 10.0979C126.994 7.932 128.106 6.84903 130.33 6.84903H158.868C160.507 6.84903 161.561 7.55149 162.029 8.95642L162.205 18.0885V51.3677C162.205 52.3629 161.883 53.1531 161.239 53.7385C160.653 54.3239 159.863 54.6166 158.868 54.6166H130.33C128.633 54.6166 127.55 53.8849 127.081 52.4214L126.994 43.2016V10.0979Z" fill="#EFF0F4"/>
<path d="M0.849687 44.4545C0.283229 44.4545 0 44.1657 0 43.5879V39.1758C0 38.598 0.283229 38.3091 0.849687 38.3091H12.7453C13.6207 38.3091 14.3159 38.0465 14.8309 37.5212C15.3974 36.9434 15.6806 36.2081 15.6806 35.3152V22.8667C15.6806 22.2889 15.9381 22 16.453 22H20.7787C21.3452 22 21.6284 22.2889 21.6284 22.8667V33.8182C21.6284 34.396 21.4482 34.8687 21.0877 35.2364L12.6681 43.8242C12.2561 44.2444 11.7926 44.4545 11.2777 44.4545H0.849687ZM36.1503 38.3879C36.7168 38.3879 37 38.6768 37 39.2545V43.5879C37 44.1657 36.7168 44.4545 36.1503 44.4545H24.2547C23.3793 44.4545 22.6583 44.7434 22.0919 45.3212C21.5769 45.8465 21.3194 46.5556 21.3194 47.4485V60.1333C21.3194 60.7111 21.0362 61 20.4697 61H16.1441C15.6291 61 15.3716 60.7111 15.3716 60.1333V48.9455C15.3716 48.4202 15.5518 47.9475 15.9123 47.5273L24.3319 39.0182C24.6924 38.598 25.1301 38.3879 25.6451 38.3879H36.1503Z" fill="#EFF0F4"/>
</g>
<defs>
<clipPath id="clip0_204_2">
<rect width="169" height="62" fill="white"/>
</clipPath>
</defs>
</svg>
