<svg width="38" height="44" viewBox="0 0 38 44" fill="none" xmlns="http://www.w3.org/2000/svg">
<path d="M27.2829 1.57441L27.2829 27.596C27.2829 29.1321 26.7859 30.3519 25.792 31.2555C24.8884 32.159 23.6686 32.6108 22.1326 32.6108L14.5425 32.6108C13.5486 32.6108 13.0516 33.1078 13.0516 34.1017L13.0516 41.6917C13.0516 42.6857 13.5486 43.1826 14.5425 43.1826L19.5574 43.1826C20.5513 43.1826 21.3645 42.8664 21.997 42.2339L36.6349 27.4604C37.3578 26.7376 37.7192 25.9244 37.7192 25.0208L37.7192 1.57441C37.7192 0.580477 37.2222 0.0835097 36.2283 0.0835096L28.7738 0.0835089C27.7799 0.0835088 27.2829 0.580476 27.2829 1.57441Z" fill="#B5F041"/>
<path d="M10.4363 41.6917V15.6701C10.4363 14.1341 10.9333 12.9142 11.9272 12.0107C12.8308 11.1071 14.0506 10.6553 15.5867 10.6553H23.1767C24.1706 10.6553 24.6676 10.1583 24.6676 9.16441V1.5744C24.6676 0.580463 24.1706 0.0834961 23.1767 0.0834961H18.1619C17.1679 0.0834961 16.3547 0.399748 15.7222 1.03225L1.08435 15.8057C0.361488 16.5285 5.72205e-05 17.3417 5.72205e-05 18.2453V41.6917C5.72205e-05 42.6856 0.497015 43.1826 1.49094 43.1826H8.94543C9.93936 43.1826 10.4363 42.6856 10.4363 41.6917Z" fill="#B5F041"/>
</svg>
