<svg width="18" height="24" viewBox="0 0 18 24" fill="none" xmlns="http://www.w3.org/2000/svg">
<path d="M0.46814 1.41094V20.9648C0.46814 21.6082 0.99021 22.125 1.6283 22.125C1.96052 22.125 2.2822 21.9826 2.50369 21.7295L6.85955 16.7461L9.92341 22.8791C10.34 23.7123 11.3525 24.0498 12.1857 23.6332C13.0189 23.2166 13.3564 22.2041 12.9398 21.3709L9.94978 15.375H16.1777C16.8211 15.375 17.3431 14.8529 17.3431 14.2096C17.3431 13.8773 17.2008 13.5609 16.9529 13.3395L2.50369 0.498633C2.27693 0.298242 1.99216 0.1875 1.69158 0.1875C1.01658 0.1875 0.46814 0.735938 0.46814 1.41094Z" fill="#0A0F1E"/>
</svg>
