<svg width="22" height="23" viewBox="0 0 22 23" fill="none" xmlns="http://www.w3.org/2000/svg">
<path d="M0.505219 13.2424C0.168406 13.2424 0 13.0721 0 12.7313V10.1293C0 9.78855 0.168406 9.61818 0.505219 9.61818H7.57829C8.09882 9.61818 8.51218 9.4633 8.81837 9.15353C9.15518 8.81279 9.32359 8.37913 9.32359 7.85253V0.51111C9.32359 0.17037 9.47669 0 9.78288 0H12.3549C12.6917 0 12.8601 0.17037 12.8601 0.51111V6.9697C12.8601 7.31044 12.753 7.58922 12.5386 7.80606L7.53236 12.8707C7.2874 13.1185 7.01183 13.2424 6.70564 13.2424H0.505219ZM21.4948 9.66465C21.8316 9.66465 22 9.83502 22 10.1758V12.7313C22 13.0721 21.8316 13.2424 21.4948 13.2424H14.4217C13.9012 13.2424 13.4725 13.4128 13.1357 13.7535C12.8295 14.0633 12.6764 14.4815 12.6764 15.0081V22.4889C12.6764 22.8296 12.508 23 12.1712 23H9.59917C9.29297 23 9.13987 22.8296 9.13987 22.4889V15.8909C9.13987 15.5811 9.24704 15.3024 9.46138 15.0545L14.4676 10.0364C14.682 9.78855 14.9422 9.66465 15.2484 9.66465H21.4948Z" fill="url(#paint0_linear_40_786)"/>
<defs>
<linearGradient id="paint0_linear_40_786" x1="11" y1="0" x2="11" y2="23" gradientUnits="userSpaceOnUse">
<stop stop-color="#B1EF42"/>
<stop offset="1" stop-color="#D4F134"/>
</linearGradient>
</defs>
</svg>
