<svg width="17" height="16" viewBox="0 0 17 16" fill="none" xmlns="http://www.w3.org/2000/svg">
<path d="M3.32123 15.6078C3.12839 15.8117 2.92863 15.8159 2.72196 15.6204L1.14375 14.1275C0.937079 13.932 0.930165 13.7323 1.12301 13.5284L5.17272 9.24726C5.47075 8.93219 5.61348 8.59313 5.60091 8.23007C5.58708 7.83071 5.42047 7.47997 5.10107 7.17783L0.648256 2.96578C0.441586 2.77029 0.425907 2.57987 0.601219 2.39454L2.07384 0.837745C2.26668 0.633879 2.46644 0.629694 2.67311 0.825189L6.59045 4.53073C6.79713 4.72623 6.90486 4.95104 6.91366 5.20518L7.11918 11.1412C7.12924 11.4316 7.04661 11.6695 6.8713 11.8548L3.32123 15.6078ZM13.1688 0.850544C13.3617 0.646679 13.5614 0.642494 13.7681 0.83799L15.3181 2.30421C15.5248 2.49971 15.5317 2.69939 15.3389 2.90325L11.2892 7.18444C10.9911 7.4995 10.849 7.85672 10.8629 8.25608C10.8754 8.61914 11.0414 8.95173 11.3608 9.25386L15.8982 13.5459C16.1048 13.7414 16.1118 13.9411 15.9189 14.1449L14.4463 15.7017C14.271 15.8871 14.08 15.882 13.8733 15.6865L9.87142 11.901C9.68354 11.7232 9.57581 11.4984 9.54822 11.2265L9.37088 5.3172C9.34329 5.04529 9.41715 4.81666 9.59246 4.63133L13.1688 0.850544Z" fill="#AFAFAF"/>
</svg>
