<svg width="24" height="25" viewBox="0 0 24 25" fill="none" xmlns="http://www.w3.org/2000/svg">
<path d="M4.6875 5.59766C3.75586 5.59766 3 6.35352 3 7.28516C3 7.81602 3.24961 8.31523 3.675 8.63516L11.325 14.3727C11.7258 14.6715 12.2742 14.6715 12.675 14.3727L20.325 8.63516C20.7504 8.31523 21 7.81602 21 7.28516C21 6.35352 20.2441 5.59766 19.3125 5.59766H4.6875ZM3 9.53516V16.8477C3 18.0887 4.00898 19.0977 5.25 19.0977H18.75C19.991 19.0977 21 18.0887 21 16.8477V9.53516L13.35 15.2727C12.5484 15.8738 11.4516 15.8738 10.65 15.2727L3 9.53516Z" fill="white"/>
</svg>
