<svg width="9" height="16" viewBox="0 0 9 16" fill="none" xmlns="http://www.w3.org/2000/svg">
<path d="M5.63437 15.8906C5.55625 15.8938 5.50625 15.9 5.45625 15.9C4.3875 15.9 3.32188 15.8969 2.25313 15.9031C2.10313 15.9031 2.0625 15.8625 2.0625 15.7125C2.06562 13.225 2.06563 10.7344 2.06563 8.24688C2.06563 8.18126 2.06563 8.11563 2.06563 8.03126C1.48438 8.03126 0.91875 8.03126 0.34375 8.03126C0.34375 7.14376 0.34375 6.27188 0.34375 5.37501C0.403125 5.37501 0.459375 5.37501 0.5125 5.37501C0.98125 5.37501 1.45 5.37188 1.91875 5.37813C2.0375 5.37813 2.06875 5.34376 2.06875 5.22813C2.0625 4.53126 2.0625 3.83126 2.06875 3.13438C2.07187 2.64688 2.15 2.17188 2.375 1.73126C2.69688 1.10938 3.20625 0.706258 3.85 0.456258C4.375 0.250008 4.92812 0.175008 5.48438 0.165633C6.39062 0.153133 7.29688 0.159383 8.20312 0.156258C8.2875 0.156258 8.35625 0.153133 8.35625 0.271883C8.35312 1.13126 8.35312 1.99063 8.35312 2.85001C8.35312 2.85938 8.35 2.86876 8.3375 2.90938C8.28437 2.90938 8.225 2.90938 8.16562 2.90938C7.60312 2.90938 7.04062 2.90626 6.47812 2.90938C6.15312 2.90938 5.89063 3.04063 5.725 3.32501C5.675 3.40938 5.64375 3.51876 5.64375 3.61876C5.63438 4.15001 5.64375 4.68126 5.6375 5.21251C5.6375 5.33751 5.675 5.37188 5.79688 5.37188C6.57812 5.36563 7.35938 5.36876 8.14062 5.36876C8.20312 5.36876 8.2625 5.36876 8.36875 5.36876C8.25937 6.26251 8.15312 7.13751 8.04375 8.02188C7.23125 8.02188 6.44062 8.02188 5.63437 8.02188C5.63437 10.65 5.63437 13.2625 5.63437 15.8906Z" fill="#434343"/>
</svg>
