<svg width="13" height="23" viewBox="0 0 13 23" fill="none" xmlns="http://www.w3.org/2000/svg">
<g clip-path="url(#clip0_92_535)">
<path d="M8.1381 22.8427C8.02526 22.8473 7.95304 22.8562 7.88082 22.8562C6.33707 22.8562 4.79784 22.8518 3.25409 22.8607C3.03742 22.8607 2.97873 22.8023 2.97873 22.5867C2.98324 19.0109 2.98325 15.4307 2.98325 11.8549C2.98325 11.7606 2.98325 11.6662 2.98325 11.5449C2.14367 11.5449 1.32665 11.5449 0.496094 11.5449C0.496094 10.2692 0.496094 9.01583 0.496094 7.72658C0.581858 7.72658 0.663108 7.72658 0.739844 7.72658C1.41693 7.72658 2.09401 7.72208 2.77109 7.73106C2.94262 7.73106 2.98776 7.68165 2.98776 7.51544C2.97873 6.51369 2.97873 5.50744 2.98776 4.50567C2.99227 3.80489 3.10512 3.12208 3.43012 2.48869C3.89506 1.59473 4.63082 1.01525 5.56068 0.655871C6.31901 0.359386 7.11796 0.251574 7.92145 0.238097C9.23046 0.220128 10.5395 0.229113 11.8485 0.224621C11.9704 0.224621 12.0697 0.220128 12.0697 0.390832C12.0652 1.62619 12.0652 2.86153 12.0652 4.09689C12.0652 4.11036 12.0607 4.12384 12.0426 4.18223C11.9659 4.18223 11.8801 4.18223 11.7943 4.18223C10.9818 4.18223 10.1693 4.17775 9.35685 4.18223C8.88741 4.18223 8.50825 4.37091 8.26901 4.7797C8.19679 4.90098 8.15165 5.05822 8.15165 5.20197C8.13811 5.96564 8.15165 6.72931 8.14262 7.49298C8.14262 7.67267 8.19679 7.72208 8.37284 7.72208C9.50129 7.71309 10.6298 7.71759 11.7582 7.71759C11.8485 7.71759 11.9343 7.71759 12.0878 7.71759C11.9298 9.00236 11.7763 10.2602 11.6183 11.5315C10.4447 11.5315 9.30268 11.5315 8.1381 11.5315C8.1381 15.3094 8.1381 19.0648 8.1381 22.8427Z" fill="#434343"/>
</g>
<defs>
<clipPath id="clip0_92_535">
<rect width="13" height="23" fill="white"/>
</clipPath>
</defs>
</svg>
