<svg width="39" height="41" viewBox="0 0 39 41" fill="none" xmlns="http://www.w3.org/2000/svg">
<path d="M0.895616 23.6061C0.298539 23.6061 0 23.3024 0 22.6949V18.0566C0 17.4492 0.298539 17.1455 0.895616 17.1455H13.4342C14.357 17.1455 15.0898 16.8694 15.6326 16.3172C16.2296 15.7098 16.5282 14.9367 16.5282 13.998V0.911108C16.5282 0.303702 16.7996 0 17.3424 0H21.9019C22.499 0 22.7975 0.303702 22.7975 0.911108V12.4242C22.7975 13.0316 22.6075 13.5286 22.2276 13.9151L13.3528 22.9434C12.9186 23.3852 12.4301 23.6061 11.8873 23.6061H0.895616ZM38.1044 17.2283C38.7015 17.2283 39 17.532 39 18.1394V22.6949C39 23.3024 38.7015 23.6061 38.1044 23.6061H25.5658C24.643 23.6061 23.8831 23.9098 23.286 24.5172C22.7432 25.0694 22.4718 25.8148 22.4718 26.7535V40.0889C22.4718 40.6963 22.1733 41 21.5762 41H17.0167C16.4739 41 16.2025 40.6963 16.2025 40.0889V28.3273C16.2025 27.7751 16.3925 27.2781 16.7724 26.8364L25.6472 17.8909C26.0271 17.4492 26.4885 17.2283 27.0313 17.2283H38.1044Z" fill="#B287FD"/>
</svg>
