<svg width="74" height="72" viewBox="0 0 74 72" fill="none" xmlns="http://www.w3.org/2000/svg">
<rect width="74" height="72" fill="url(#paint0_linear_40_588)"/>
<path d="M42.5283 12.6705C41.2817 13.2084 40.4688 14.4213 40.4688 15.7502V22.5002H28.3281C17.7918 22.5002 9.25 30.8111 9.25 41.0627C9.25 53.0123 18.0845 58.349 20.1115 59.4248C20.3825 59.5724 20.686 59.6252 20.9896 59.6252C22.1711 59.6252 23.125 58.6865 23.125 57.5474C23.125 56.7564 22.6589 56.0287 22.0627 55.4908C21.0437 54.5521 19.6562 52.7064 19.6562 49.5002C19.6562 43.9103 24.3174 39.3752 30.0625 39.3752H40.4688V46.1252C40.4688 47.4541 41.2709 48.667 42.5283 49.2049C43.7857 49.7428 45.2383 49.5213 46.2572 48.6353L63.601 33.4478C64.3272 32.8045 64.75 31.8974 64.75 30.9377C64.75 29.9779 64.3381 29.0709 63.601 28.4275L46.2572 13.24C45.2383 12.3435 43.7749 12.122 42.5283 12.6705Z" fill="url(#paint1_linear_40_588)"/>
<defs>
<linearGradient id="paint0_linear_40_588" x1="37" y1="0" x2="37" y2="72" gradientUnits="userSpaceOnUse">
<stop stop-color="white"/>
<stop offset="1" stop-color="white" stop-opacity="0"/>
</linearGradient>
<linearGradient id="paint1_linear_40_588" x1="37" y1="12.373" x2="37" y2="59.6252" gradientUnits="userSpaceOnUse">
<stop stop-color="#B1EF42"/>
<stop offset="1" stop-color="#D4F134"/>
</linearGradient>
</defs>
</svg>
