<svg width="68" height="68" viewBox="0 0 68 68" fill="none" xmlns="http://www.w3.org/2000/svg">
<path d="M34 59.5C19.9152 59.5 8.5 48.0848 8.5 34C8.5 19.9152 19.9152 8.5 34 8.5C48.0848 8.5 59.5 19.9152 59.5 34C59.5 48.0848 48.0848 59.5 34 59.5ZM31.6094 20.4531V34C31.6094 34.7969 32.0078 35.5439 32.6752 35.9922L42.2377 42.3672C43.3334 43.1043 44.8176 42.8055 45.5547 41.6998C46.2918 40.5941 45.993 39.1199 44.8873 38.3828L36.3906 32.725V20.4531C36.3906 19.1283 35.3248 18.0625 34 18.0625C32.6752 18.0625 31.6094 19.1283 31.6094 20.4531Z" fill="url(#paint0_linear_40_608)"/>
<defs>
<linearGradient id="paint0_linear_40_608" x1="34" y1="8.5" x2="34" y2="59.5" gradientUnits="userSpaceOnUse">
<stop stop-color="#B1EF42"/>
<stop offset="1" stop-color="#D4F134"/>
</linearGradient>
</defs>
</svg>
