<svg width="68" height="68" viewBox="0 0 68 68" fill="none" xmlns="http://www.w3.org/2000/svg">
<path d="M14.875 29.2287L34 15.0643L53.125 29.2287V33.9502L37.3369 45.6543C36.3707 46.3715 35.2053 46.75 34 46.75C32.7947 46.75 31.6293 46.3615 30.6631 45.6543L14.875 33.9502V29.2287ZM34 8.5C32.7947 8.5 31.6293 8.88848 30.6631 9.5957L11.0799 24.1088C9.45625 25.3141 8.5 27.2066 8.5 29.2287V53.125C8.5 56.6412 11.3588 59.5 14.875 59.5H53.125C56.6412 59.5 59.5 56.6412 59.5 53.125V29.2287C59.5 27.2066 58.5438 25.3041 56.9201 24.1088L37.3369 9.5957C36.3707 8.88848 35.2053 8.5 34 8.5Z" fill="url(#paint0_linear_39_164)"/>
<defs>
<linearGradient id="paint0_linear_39_164" x1="8.13044" y1="8.86956" x2="51.3696" y2="59.8696" gradientUnits="userSpaceOnUse">
<stop stop-color="#B1EF42"/>
<stop offset="1" stop-color="#D4F134"/>
</linearGradient>
</defs>
</svg>
