<svg width="9" height="17" viewBox="0 0 9 17" fill="none" xmlns="http://www.w3.org/2000/svg">
<path d="M5.63437 16.2383C5.55625 16.2414 5.50625 16.2477 5.45625 16.2477C4.3875 16.2477 3.32188 16.2445 2.25313 16.2508C2.10313 16.2508 2.0625 16.2102 2.0625 16.0602C2.06562 13.5727 2.06563 11.082 2.06563 8.59454C2.06563 8.52891 2.06563 8.46329 2.06563 8.37891C1.48438 8.37891 0.91875 8.37891 0.34375 8.37891C0.34375 7.49141 0.34375 6.61954 0.34375 5.72266C0.403125 5.72266 0.459375 5.72266 0.5125 5.72266C0.98125 5.72266 1.45 5.71954 1.91875 5.72579C2.0375 5.72579 2.06875 5.69141 2.06875 5.57579C2.0625 4.87891 2.0625 4.17891 2.06875 3.48204C2.07187 2.99454 2.15 2.51954 2.375 2.07891C2.69688 1.45704 3.20625 1.05391 3.85 0.803914C4.375 0.597664 4.92812 0.522664 5.48438 0.513289C6.39062 0.500789 7.29688 0.507039 8.20312 0.503914C8.2875 0.503914 8.35625 0.500789 8.35625 0.619539C8.35312 1.47891 8.35312 2.33829 8.35312 3.19766C8.35312 3.20704 8.35 3.21641 8.3375 3.25704C8.28437 3.25704 8.225 3.25704 8.16562 3.25704C7.60312 3.25704 7.04062 3.25391 6.47812 3.25704C6.15312 3.25704 5.89063 3.38829 5.725 3.67266C5.675 3.75704 5.64375 3.86641 5.64375 3.96641C5.63438 4.49766 5.64375 5.02891 5.6375 5.56016C5.6375 5.68516 5.675 5.71954 5.79688 5.71954C6.57812 5.71329 7.35938 5.71641 8.14062 5.71641C8.20312 5.71641 8.2625 5.71641 8.36875 5.71641C8.25937 6.61016 8.15312 7.48516 8.04375 8.36954C7.23125 8.36954 6.44062 8.36954 5.63437 8.36954C5.63437 10.9977 5.63437 13.6102 5.63437 16.2383Z" fill="#434343"/>
</svg>
