<svg width="221" height="253" viewBox="0 0 221 253" fill="none" xmlns="http://www.w3.org/2000/svg">
<g clip-path="url(#clip0_201_21)">
<path d="M159.412 9.05894V161.103C159.412 170.078 156.508 177.205 150.7 182.485C145.421 187.764 138.293 190.404 129.318 190.404H84.97C79.1625 190.404 76.2587 193.308 76.2587 199.115V243.464C76.2587 249.271 79.1625 252.175 84.97 252.175H114.272C120.079 252.175 124.831 250.327 128.526 246.631L214.055 160.311C218.279 156.087 220.39 151.335 220.39 146.056L220.391 9.05895C220.391 3.25144 217.487 0.34766 211.679 0.34766L168.123 0.347656C162.315 0.347655 159.412 3.25143 159.412 9.05894Z" fill="white" fill-opacity="0.05"/>
<path d="M60.9788 243.463V91.4199C60.9788 82.4447 63.8826 75.3173 69.6901 70.0377C74.9696 64.7582 82.097 62.1184 91.0723 62.1184H135.421C141.228 62.1184 144.132 59.2146 144.132 53.4072V9.05894C144.132 3.25142 141.228 0.347656 135.421 0.347656H106.119C100.311 0.347656 95.5599 2.19551 91.8642 5.89121L6.33547 92.2118C2.11184 96.4355 7.62939e-06 101.187 7.62939e-06 106.467V243.463C7.62939e-06 249.271 2.90372 252.174 8.71122 252.174H52.2675C58.075 252.174 60.9788 249.271 60.9788 243.463Z" fill="white" fill-opacity="0.05"/>
</g>
<defs>
<clipPath id="clip0_201_21">
<rect width="221" height="253" fill="white"/>
</clipPath>
</defs>
</svg>
