<svg width="682" height="74" viewBox="0 0 682 74" fill="none" xmlns="http://www.w3.org/2000/svg">
<path d="M0.4 72V2H43V8.9H8.8V33.5H37.9V40.3H8.8V72H0.4ZM71.7695 73.2C67.1029 73.2 62.9029 72.1333 59.1695 70C55.4362 67.8667 52.4695 64.8667 50.2695 61C48.1362 57.0667 47.0695 52.4667 47.0695 47.2C47.0695 41.9333 48.1695 37.3667 50.3695 33.5C52.5695 29.5667 55.5362 26.5333 59.2695 24.4C63.0695 22.2667 67.3029 21.2 71.9695 21.2C76.6362 21.2 80.8362 22.2667 84.5695 24.4C88.3029 26.5333 91.2362 29.5667 93.3695 33.5C95.5695 37.3667 96.6695 41.9333 96.6695 47.2C96.6695 52.4667 95.5695 57.0667 93.3695 61C91.1695 64.8667 88.1695 67.8667 84.3695 70C80.6362 72.1333 76.4362 73.2 71.7695 73.2ZM71.7695 66C74.6362 66 77.3029 65.3 79.7695 63.9C82.2362 62.5 84.2362 60.4 85.7695 57.6C87.3029 54.8 88.0695 51.3333 88.0695 47.2C88.0695 43.0667 87.3029 39.6 85.7695 36.8C84.3029 34 82.3362 31.9 79.8695 30.5C77.4029 29.1 74.7695 28.4 71.9695 28.4C69.1029 28.4 66.4362 29.1 63.9695 30.5C61.5029 31.9 59.5029 34 57.9695 36.8C56.4362 39.6 55.6695 43.0667 55.6695 47.2C55.6695 51.3333 56.4362 54.8 57.9695 57.6C59.5029 60.4 61.4695 62.5 63.8695 63.9C66.3362 65.3 68.9695 66 71.7695 66ZM124.449 73.2C118.583 73.2 113.916 71.4333 110.449 67.9C106.983 64.3 105.249 58.8 105.249 51.4V22.4H113.649V50.5C113.649 60.8333 117.883 66 126.349 66C130.683 66 134.249 64.4667 137.049 61.4C139.916 58.2667 141.349 53.8333 141.349 48.1V22.4H149.749V72H142.149L141.549 63.1C140.016 66.2333 137.716 68.7 134.649 70.5C131.649 72.3 128.249 73.2 124.449 73.2ZM161.576 72V22.4H169.176L169.676 31.3C171.276 28.1667 173.576 25.7 176.576 23.9C179.576 22.1 182.976 21.2 186.776 21.2C192.642 21.2 197.309 23 200.776 26.6C204.309 30.1333 206.076 35.6 206.076 43V72H197.676V43.9C197.676 33.5667 193.409 28.4 184.876 28.4C180.609 28.4 177.042 29.9667 174.176 33.1C171.376 36.1667 169.976 40.5667 169.976 46.3V72H161.576ZM239.302 73.2C234.369 73.2 230.036 72.0667 226.302 69.8C222.636 67.5333 219.769 64.4333 217.702 60.5C215.702 56.5667 214.702 52.1 214.702 47.1C214.702 42.1 215.736 37.6667 217.802 33.8C219.869 29.8667 222.736 26.8 226.402 24.6C230.069 22.3333 234.402 21.2 239.402 21.2C243.469 21.2 247.069 22.0333 250.202 23.7C253.336 25.3667 255.769 27.7 257.502 30.7V-2.86102e-06H265.902V72H258.302L257.502 63.8C255.902 66.2 253.602 68.3667 250.602 70.3C247.602 72.2333 243.836 73.2 239.302 73.2ZM240.202 65.9C243.536 65.9 246.469 65.1333 249.002 63.6C251.602 62 253.602 59.8 255.002 57C256.469 54.2 257.202 50.9333 257.202 47.2C257.202 43.4667 256.469 40.2 255.002 37.4C253.602 34.6 251.602 32.4333 249.002 30.9C246.469 29.3 243.536 28.5 240.202 28.5C236.936 28.5 234.002 29.3 231.402 30.9C228.869 32.4333 226.869 34.6 225.402 37.4C224.002 40.2 223.302 43.4667 223.302 47.2C223.302 50.9333 224.002 54.2 225.402 57C226.869 59.8 228.869 62 231.402 63.6C234.002 65.1333 236.936 65.9 240.202 65.9ZM299.895 73.2C295.162 73.2 290.962 72.1333 287.295 70C283.629 67.8 280.729 64.7667 278.595 60.9C276.529 57.0333 275.495 52.4667 275.495 47.2C275.495 42 276.529 37.4667 278.595 33.6C280.662 29.6667 283.529 26.6333 287.195 24.5C290.929 22.3 295.229 21.2 300.095 21.2C304.895 21.2 309.029 22.3 312.495 24.5C316.029 26.6333 318.729 29.4667 320.595 33C322.462 36.5333 323.395 40.3333 323.395 44.4C323.395 45.1333 323.362 45.8667 323.295 46.6C323.295 47.3333 323.295 48.1667 323.295 49.1H283.795C283.995 52.9 284.862 56.0667 286.395 58.6C287.995 61.0667 289.962 62.9333 292.295 64.2C294.695 65.4667 297.229 66.1 299.895 66.1C303.362 66.1 306.262 65.3 308.595 63.7C310.929 62.1 312.629 59.9333 313.695 57.2H321.995C320.662 61.8 318.095 65.6333 314.295 68.7C310.562 71.7 305.762 73.2 299.895 73.2ZM299.895 28.3C295.895 28.3 292.329 29.5333 289.195 32C286.129 34.4 284.362 37.9333 283.895 42.6H315.095C314.895 38.1333 313.362 34.6333 310.495 32.1C307.629 29.5667 304.095 28.3 299.895 28.3ZM332.529 72V22.4H340.129L340.829 31.9C342.362 28.6333 344.696 26.0333 347.829 24.1C350.962 22.1667 354.829 21.2 359.429 21.2V30H357.129C354.196 30 351.496 30.5333 349.029 31.6C346.562 32.6 344.596 34.3333 343.129 36.8C341.662 39.2667 340.929 42.6667 340.929 47V72H332.529ZM407.822 73.2C403.689 73.2 400.255 72.5 397.522 71.1C394.789 69.7 392.755 67.8333 391.422 65.5C390.089 63.1667 389.422 60.6333 389.422 57.9C389.422 52.8333 391.355 48.9333 395.222 46.2C399.089 43.4667 404.355 42.1 411.022 42.1H424.422V41.5C424.422 37.1667 423.289 33.9 421.022 31.7C418.755 29.4333 415.722 28.3 411.922 28.3C408.655 28.3 405.822 29.1333 403.422 30.8C401.089 32.4 399.622 34.7667 399.022 37.9H390.422C390.755 34.3 391.955 31.2667 394.022 28.8C396.155 26.3333 398.789 24.4667 401.922 23.2C405.055 21.8667 408.389 21.2 411.922 21.2C418.855 21.2 424.055 23.0667 427.522 26.8C431.055 30.4667 432.822 35.3667 432.822 41.5V72H425.322L424.822 63.1C423.422 65.9 421.355 68.3 418.622 70.3C415.955 72.2333 412.355 73.2 407.822 73.2ZM409.122 66.1C412.322 66.1 415.055 65.2667 417.322 63.6C419.655 61.9333 421.422 59.7667 422.622 57.1C423.822 54.4333 424.422 51.6333 424.422 48.7V48.6H411.722C406.789 48.6 403.289 49.4667 401.222 51.2C399.222 52.8667 398.222 54.9667 398.222 57.5C398.222 60.1 399.155 62.2 401.022 63.8C402.955 65.3333 405.655 66.1 409.122 66.1ZM461.656 72C457.123 72 453.556 70.9 450.956 68.7C448.356 66.5 447.056 62.5333 447.056 56.8V29.5H438.456V22.4H447.056L448.156 10.5H455.456V22.4H470.056V29.5H455.456V56.8C455.456 59.9333 456.09 62.0667 457.356 63.2C458.623 64.2667 460.856 64.8 464.056 64.8H469.256V72H461.656ZM499.293 72L525.093 2H533.993L559.693 72H550.793L544.393 54H514.593L508.093 72H499.293ZM517.093 47.2H541.893L529.493 12.6L517.093 47.2ZM567.599 72V-2.86102e-06H575.999V72H567.599ZM605.867 73.2C600.001 73.2 595.334 71.4333 591.867 67.9C588.401 64.3 586.667 58.8 586.667 51.4V22.4H595.067V50.5C595.067 60.8333 599.301 66 607.767 66C612.101 66 615.667 64.4667 618.467 61.4C621.334 58.2667 622.767 53.8333 622.767 48.1V22.4H631.167V72H623.567L622.967 63.1C621.434 66.2333 619.134 68.7 616.067 70.5C613.067 72.3 609.667 73.2 605.867 73.2ZM661.994 73.2C656.06 73.2 651.127 71.7 647.194 68.7C643.26 65.7 640.96 61.6333 640.294 56.5H648.894C649.427 59.1 650.794 61.3667 652.994 63.3C655.26 65.1667 658.294 66.1 662.094 66.1C665.627 66.1 668.227 65.3667 669.894 63.9C671.56 62.3667 672.394 60.5667 672.394 58.5C672.394 55.5 671.294 53.5 669.094 52.5C666.96 51.5 663.927 50.6 659.994 49.8C657.327 49.2667 654.66 48.5 651.994 47.5C649.327 46.5 647.094 45.1 645.294 43.3C643.494 41.4333 642.594 39 642.594 36C642.594 31.6667 644.194 28.1333 647.394 25.4C650.66 22.6 655.06 21.2 660.594 21.2C665.86 21.2 670.16 22.5333 673.494 25.2C676.894 27.8 678.86 31.5333 679.394 36.4H671.094C670.76 33.8667 669.66 31.9 667.794 30.5C665.994 29.0333 663.56 28.3 660.494 28.3C657.494 28.3 655.16 28.9333 653.494 30.2C651.894 31.4667 651.094 33.1333 651.094 35.2C651.094 37.2 652.127 38.7667 654.194 39.9C656.327 41.0333 659.194 42 662.794 42.8C665.86 43.4667 668.76 44.3 671.494 45.3C674.294 46.2333 676.56 47.6667 678.294 49.6C680.094 51.4667 680.994 54.2 680.994 57.8C681.06 62.2667 679.36 65.9667 675.894 68.9C672.494 71.7667 667.86 73.2 661.994 73.2Z" fill="#D8D9DD"/>
</svg>
