<svg width="538" height="614" viewBox="0 0 538 614" fill="none" xmlns="http://www.w3.org/2000/svg">
<g opacity="0.1">
<path d="M149.31 21.2399L149.31 391.949C149.31 413.832 156.39 431.21 170.549 444.083C183.422 456.955 200.8 463.392 222.683 463.392L330.812 463.392C344.972 463.392 352.052 470.471 352.052 484.631L352.052 592.76C352.052 606.92 344.972 614 330.812 614L259.37 614C245.21 614 233.625 609.495 224.614 600.484L16.0793 390.018C5.78126 379.72 0.632211 368.135 0.63221 355.263L0.632181 21.2399C0.63218 7.08008 7.71198 0.000121656 21.8717 0.000120418L128.07 0.000111134C142.23 0.000109896 149.31 7.08007 149.31 21.2399Z" fill="white"/>
<path d="M389.309 592.76V222.051C389.309 200.167 382.229 182.79 368.07 169.917C355.197 157.045 337.819 150.608 315.936 150.608H207.807C193.647 150.608 186.567 143.528 186.567 129.369V21.2396C186.567 7.07983 193.647 -7.62939e-05 207.807 -7.62939e-05H279.249C293.409 -7.62939e-05 304.994 4.50532 314.005 13.5161L522.54 223.982C532.838 234.28 537.987 245.865 537.987 258.737V592.76C537.987 606.92 530.907 614 516.747 614H410.549C396.389 614 389.309 606.92 389.309 592.76Z" fill="white"/>
</g>
</svg>
