<svg width="15" height="14" viewBox="0 0 15 14" fill="none" xmlns="http://www.w3.org/2000/svg">
<path d="M15 8.5827V14H11.7843V8.94576C11.7843 7.67669 11.32 6.81004 10.1557 6.81004C9.2672 6.81004 8.73937 7.39351 8.50627 7.95847C8.42161 8.16038 8.39979 8.44076 8.39979 8.72394V13.9998H5.18386C5.18386 13.9998 5.22703 5.43955 5.18386 4.55346H8.40003V5.89209C8.39355 5.90263 8.38444 5.91293 8.37868 5.92301H8.40003V5.89209C8.82738 5.24983 9.58952 4.33164 11.2982 4.33164C13.4139 4.33164 15 5.68175 15 8.5827ZM1.81972 0C0.719687 0 0 0.70527 0 1.63189C0 2.53883 0.698823 3.26448 1.77751 3.26448H1.79838C2.92 3.26448 3.61738 2.53883 3.61738 1.63189C3.59604 0.70527 2.92 0 1.81972 0ZM0.191133 14H3.40586V4.55346H0.191133V14Z" fill="#434343"/>
</svg>
