<svg width="24" height="22" viewBox="0 0 24 22" fill="none" xmlns="http://www.w3.org/2000/svg">
<g clip-path="url(#clip0_92_529)">
<path d="M24 13.4871V22H18.8549V14.0576C18.8549 12.0634 18.112 10.7015 16.2491 10.7015C14.8275 10.7015 13.983 11.6184 13.61 12.5062C13.4746 12.8235 13.4397 13.2641 13.4397 13.709V21.9997H8.29418C8.29418 21.9997 8.36325 8.54786 8.29418 7.15544H13.44V9.259C13.4297 9.27556 13.4151 9.29175 13.4059 9.30759H13.44V9.259C14.1238 8.24973 15.3432 6.80686 18.0771 6.80686C21.4622 6.80686 24 8.92846 24 13.4871ZM2.91155 0C1.1515 0 0 1.10828 0 2.5644C0 3.98959 1.11812 5.1299 2.84402 5.1299H2.87741C4.672 5.1299 5.78781 3.98959 5.78781 2.5644C5.75366 1.10828 4.672 0 2.91155 0ZM0.305813 22H5.44938V7.15544H0.305813V22Z" fill="#434343"/>
</g>
<defs>
<clipPath id="clip0_92_529">
<rect width="24" height="22" fill="white"/>
</clipPath>
</defs>
</svg>
