<svg width="15" height="15" viewBox="0 0 15 15" fill="none" xmlns="http://www.w3.org/2000/svg">
<path d="M15 8.93036V14.3477H11.7843V9.29342C11.7843 8.02435 11.32 7.15769 10.1557 7.15769C9.2672 7.15769 8.73937 7.74116 8.50627 8.30613C8.42161 8.50804 8.39979 8.78841 8.39979 9.0716V14.3474H5.18386C5.18386 14.3474 5.22703 5.78721 5.18386 4.90111H8.40003V6.23974C8.39355 6.25028 8.38444 6.26059 8.37868 6.27066H8.40003V6.23974C8.82738 5.59748 9.58952 4.6793 11.2982 4.6793C13.4139 4.6793 15 6.0294 15 8.93036ZM1.81972 0.347656C0.719687 0.347656 0 1.05293 0 1.97955C0 2.88649 0.698823 3.61214 1.77751 3.61214H1.79838C2.92 3.61214 3.61738 2.88649 3.61738 1.97955C3.59604 1.05293 2.92 0.347656 1.81972 0.347656ZM0.191133 14.3477H3.40586V4.90111H0.191133V14.3477Z" fill="#434343"/>
</svg>
