<svg width="24" height="24" viewBox="0 0 24 24" fill="none" xmlns="http://www.w3.org/2000/svg">
<g clip-path="url(#clip0_92_531)">
<path d="M16.2883 22.7515L16.2891 22.7515C17.2255 22.7515 18.1334 22.5558 19.0025 22.1827C21.1583 21.2556 22.8191 19.1921 22.7548 16.5425L16.2883 22.7515ZM16.2883 22.7515C15.444 22.7527 14.6007 22.7566 13.7582 22.7605M16.2883 22.7515L13.7582 22.7605M16.2101 0.515482L16.2094 0.515477C14.0258 0.495412 11.8411 0.499234 9.65432 0.503059C8.77911 0.50459 7.90355 0.506121 7.02757 0.506122C5.92622 0.510673 4.88791 0.727003 3.93996 1.2224C2.8135 1.81466 1.95895 2.55213 1.38469 3.44287C0.812014 4.33116 0.5 5.39968 0.5 6.68581V6.70551V6.7252V6.74489V6.76458V6.78428V6.80397V6.82366V6.84335V6.86305V6.88274V6.90243V6.92212V6.94181V6.9615V6.9812V7.00089V7.02058V7.04027V7.05996V7.07965V7.09934V7.11903V7.13872V7.15841V7.1781V7.19779V7.21748V7.23717V7.25687V7.27656V7.29624V7.31593V7.33562V7.35531V7.375V7.39469V7.41438V7.43407V7.45376V7.47345V7.49314V7.51283V7.53252V7.5522V7.57189V7.59158V7.61127V7.63096V7.65065V7.67033V7.69002V7.70971V7.7294V7.74909V7.76877V7.78846V7.80815V7.82784V7.84752V7.86721V7.8869V7.90658V7.92627V7.94596V7.96565V7.98533V8.00502V8.02471V8.04439V8.06408V8.08377V8.10345V8.12314V8.14282V8.16251V8.1822V8.20188V8.22157V8.24125V8.26094V8.28062V8.30031V8.31999V8.33968V8.35937V8.37905V8.39874V8.41842V8.43811V8.45779V8.47748V8.49716V8.51685V8.53653V8.55622V8.5759V8.59558V8.61527V8.63495V8.65464V8.67432V8.69401V8.71369V8.73337V8.75306V8.77274V8.79243V8.81211V8.83179V8.85148V8.87116V8.89084V8.91053V8.93021V8.94989V8.96958V8.98926V9.00894V9.02863V9.04831V9.06799V9.08768V9.10736V9.12704V9.14672V9.16641V9.18609V9.20577V9.22545V9.24514V9.26482V9.2845V9.30418V9.32386V9.34355V9.36323V9.38291V9.40259V9.42228V9.44196V9.46164V9.48132V9.501V9.52069V9.54037V9.56005V9.57973V9.59941V9.61909V9.63877V9.65846V9.67814V9.69782V9.7175V9.73718V9.75686V9.77654V9.79622V9.81591V9.83559V9.85527V9.87495V9.89463V9.91431V9.93399V9.95367V9.97335V9.99303V10.0127V10.0324V10.0521V10.0718V10.0914V10.1111V10.1308V10.1505V10.1702V10.1898V10.2095V10.2292V10.2489V10.2686V10.2882V10.3079V10.3276V10.3473V10.367V10.3866V10.4063V10.426V10.4457V10.4654V10.485V10.5047V10.5244V10.5441V10.5638V10.5834V10.6031V10.6228V10.6425V10.6622V10.6818V10.7015V10.7212V10.7409V10.7606V10.7802V10.7999V10.8196V10.8393V10.859V10.8786V10.8983V10.918V10.9377V10.9574V10.977V10.9967V11.0164V11.0361V11.0557V11.0754V11.0951V11.1148V11.1345V11.1541V11.1738V11.1935V11.2132V11.2329V11.2525V11.2722V11.2919V11.3116V11.3313V11.3509V11.3706V11.3903V11.41V11.4297V11.4493V11.469V11.4887V11.5084V11.528V11.5477V11.5674V11.5871V11.6068V11.6264V11.6461V11.6658V11.6855V11.7052V11.7248V11.7445V11.7642V11.7839V11.8036V11.8232V11.8429V11.8626V11.8823V11.902V11.9216V11.9413V11.961V11.9807V12.0003V12.02V12.0397V12.0594V12.0791V12.0987V12.1184V12.1381V12.1578V12.1775V12.1971V12.2168V12.2365V12.2562V12.2759V12.2955V12.3152V12.3349V12.3546V12.3743V12.3939V12.4136V12.4333V12.453V12.4726V12.4923V12.512V12.5317V12.5514V12.571V12.5907V12.6104V12.6301V12.6498V12.6694V12.6891V12.7088V12.7285V12.7482V12.7678V12.7875V12.8072V12.8269V12.8466V12.8662V12.8859V12.9056V12.9253V12.945V12.9646V12.9843V13.004V13.0237V13.0434V13.063V13.0827V13.1024V13.1221V13.1418V13.1614V13.1811V13.2008V13.2205V13.2402V13.2598V13.2795V13.2992V13.3189V13.3386V13.3582V13.3779V13.3976V13.4173V13.437V13.4566V13.4763V13.496V13.5157V13.5354V13.555V13.5747V13.5944V13.6141V13.6338V13.6535V13.6731V13.6928V13.7125V13.7322V13.7519V13.7715V13.7912V13.8109V13.8306V13.8503V13.8699V13.8896V13.9093V13.929V13.9487V13.9684V13.988V14.0077V14.0274V14.0471V14.0668V14.0864V14.1061V14.1258V14.1455V14.1652V14.1849V14.2045V14.2242V14.2439V14.2636V14.2833V14.303V14.3226V14.3423V14.362V14.3817V14.4014V14.4211V14.4407V14.4604V14.4801V14.4998V14.5195V14.5392V14.5588V14.5785V14.5982V14.6179V14.6376V14.6573V14.6769V14.6966V14.7163V14.736V14.7557V14.7754V14.795V14.8147V14.8344V14.8541V14.8738V14.8935V14.9131V14.9328V14.9525V14.9722V14.9919V15.0116V15.0313V15.0509V15.0706V15.0903V15.11V15.1297V15.1494V15.1691V15.1887V15.2084V15.2281V15.2478V15.2675V15.2872V15.3069V15.3265V15.3462V15.3659V15.3856V15.4053V15.425V15.4447V15.4643V15.484V15.5037V15.5234V15.5431V15.5628V15.5825V15.6022V15.6218V15.6415V15.6612V15.6809V15.7006V15.7203V15.74V15.7597V15.7793V15.799V15.8187V15.8384V15.8581V15.8778V15.8975V15.9172V15.9369V15.9565V15.9762V15.9959V16.0156V16.0353V16.055V16.0747V16.0944V16.1141V16.1337V16.1534V16.1731V16.1928V16.2125V16.2322V16.2519V16.2716V16.2913V16.311V16.3306V16.3503V16.37V16.3897V16.4094V16.4291V16.4488V16.4685V16.4882V16.5079V16.5276V16.5472V16.5669V16.5866V16.6063V16.626V16.6457V16.6654V16.6851V16.7048V16.7245V16.7442V16.7639C0.5 17.9369 0.822833 19.0057 1.49443 19.9468L16.2101 0.515482ZM16.2101 0.515482C18.4435 0.533102 20.2764 1.37854 21.6385 3.15945L16.2101 0.515482ZM6.88319 22.0077L6.88226 22.0077C4.76248 21.9722 3.01972 21.0563 1.87968 19.1904L6.88319 22.0077ZM6.88319 22.0077C9.40274 22.0452 11.9261 22.0347 14.4445 22.0242C15.0757 22.0216 15.7065 22.0189 16.3369 22.0171M6.88319 22.0077L18.7735 21.4761M18.7735 21.4761L18.7729 21.4763C18.0035 21.8429 17.1798 22.0169 16.3369 22.0171M18.7735 21.4761C19.7851 20.9926 20.6049 20.3507 21.1689 19.5121C21.7349 18.6702 22.0207 17.6633 22.0156 16.4898L22.0156 16.4892M18.7735 21.4761L22.0156 16.4892M16.3369 22.0171C16.3366 22.0171 16.3363 22.0171 16.336 22.0171V21.5171L16.3375 22.0171C16.3373 22.0171 16.3371 22.0171 16.3369 22.0171ZM22.0156 16.4892C22.0025 14.1613 22.0055 11.8344 22.0084 9.50551C22.0097 8.50669 22.0109 7.50749 22.0109 6.50768C22.0109 5.46484 21.7131 4.49741 21.089 3.64765L21.088 3.64632M22.0156 16.4892L21.088 3.64632M21.088 3.64632C19.9125 2.05683 18.2721 1.27042 16.342 1.2499M21.088 3.64632L16.342 1.2499M1.21593 6.7922L1.21587 6.79051C1.13255 4.12935 2.92092 2.3398 4.79395 1.64236L1.21593 6.7922ZM1.21593 6.7922C1.25493 7.91662 1.24618 9.03258 1.23735 10.1601C1.23353 10.6478 1.22969 11.1375 1.22969 11.6311V11.6412M1.21593 6.7922L1.22969 11.6412M13.7582 22.7605C11.4449 22.7713 9.13738 22.782 6.82996 22.7374M13.7582 22.7605L6.82996 22.7374M6.82996 22.7374C4.60728 22.6936 2.80169 21.7742 1.49449 19.9469L6.82996 22.7374ZM1.22969 11.6412V11.6513M1.22969 11.6412V11.6513M1.22969 11.6513V11.6614M1.22969 11.6513V11.6614M1.22969 11.6614V11.6714M1.22969 11.6614V11.6714M1.22969 11.6714V11.6815M1.22969 11.6714V11.6815M1.22969 11.6815V11.6916M1.22969 11.6815V11.6916M1.22969 11.6916V11.7017M1.22969 11.6916V11.7017M1.22969 11.7017V11.7118M1.22969 11.7017V11.7118M1.22969 11.7118V11.7218M1.22969 11.7118V11.7218M1.22969 11.7218V11.7319M1.22969 11.7218V11.7319M1.22969 11.7319V11.742M1.22969 11.7319V11.742M1.22969 11.742V11.7521M1.22969 11.742V11.7521M1.22969 11.7521V11.7622M1.22969 11.7521V11.7622M1.22969 11.7622V11.7722M1.22969 11.7622V11.7722M1.22969 11.7722V11.7823M1.22969 11.7722V11.7823M1.22969 11.7823V11.7924M1.22969 11.7823V11.7924M1.22969 11.7924V11.8025M1.22969 11.7924V11.8025M1.22969 11.8025V11.8125M1.22969 11.8025V11.8125M1.22969 11.8125V11.8226M1.22969 11.8125V11.8226M1.22969 11.8226V11.8327M1.22969 11.8226V11.8327M1.22969 11.8327V11.8428M1.22969 11.8327V11.8428M1.22969 11.8428V11.8529M1.22969 11.8428V11.8529M1.22969 11.8529V11.8629M1.22969 11.8529V11.8629M1.22969 11.8629V11.873M1.22969 11.8629V11.873M1.22969 11.873V11.8831M1.22969 11.873V11.8831M1.22969 11.8831V11.8932M1.22969 11.8831V11.8932M1.22969 11.8932V11.9032M1.22969 11.8932V11.9032M1.22969 11.9032V11.9133M1.22969 11.9032V11.9133M1.22969 11.9133V11.9234M1.22969 11.9133V11.9234M1.22969 11.9234V11.9335M1.22969 11.9234V11.9335M1.22969 11.9335V11.9436M1.22969 11.9335V11.9436M1.22969 11.9436V11.9536M1.22969 11.9436V11.9536M1.22969 11.9536V11.9637M1.22969 11.9536V11.9637M1.22969 11.9637V11.9738M1.22969 11.9637V11.9738M1.22969 11.9738V11.9839M1.22969 11.9738V11.9839M1.22969 11.9839V11.9939M1.22969 11.9839V11.9939M1.22969 11.9939V12.004M1.22969 11.9939V12.004M1.22969 12.004V12.0141M1.22969 12.004V12.0141M1.22969 12.0141V12.0242M1.22969 12.0141V12.0242M1.22969 12.0242V12.0342M1.22969 12.0242V12.0342M1.22969 12.0342V12.0443M1.22969 12.0342V12.0443M1.22969 12.0443V12.0544M1.22969 12.0443V12.0544M1.22969 12.0544V12.0645M1.22969 12.0544V12.0645M1.22969 12.0645V12.0745M1.22969 12.0645V12.0745M1.22969 12.0745V12.0846M1.22969 12.0745V12.0846M1.22969 12.0846V12.0947M1.22969 12.0846V12.0947M1.22969 12.0947V12.1048M1.22969 12.0947V12.1048M1.22969 12.1048V12.1148M1.22969 12.1048V12.1148M1.22969 12.1148V12.1249M1.22969 12.1148V12.1249M1.22969 12.1249V12.135M1.22969 12.1249V12.135M1.22969 12.135V12.1451M1.22969 12.135V12.1451M1.22969 12.1451V12.1552M1.22969 12.1451V12.1552M1.22969 12.1552V12.1652M1.22969 12.1552V12.1652M1.22969 12.1652V12.1753M1.22969 12.1652V12.1753M1.22969 12.1753V12.1854M1.22969 12.1753V12.1854M1.22969 12.1854V12.1954M1.22969 12.1854V12.1954M1.22969 12.1954V12.2055M1.22969 12.1954V12.2055M1.22969 12.2055V12.2156M1.22969 12.2055V12.2156M1.22969 12.2156V12.2257M1.22969 12.2156V12.2257M1.22969 12.2257V12.2357M1.22969 12.2257V12.2357M1.22969 12.2357V12.2458M1.22969 12.2357V12.2458M1.22969 12.2458V12.2559M1.22969 12.2458V12.2559M1.22969 12.2559V12.266M1.22969 12.2559V12.266M1.22969 12.266V12.276M1.22969 12.266V12.276M1.22969 12.276V12.2861M1.22969 12.276V12.2861M1.22969 12.2861V12.2962M1.22969 12.2861V12.2962M1.22969 12.2962V12.3063M1.22969 12.2962V12.3063M1.22969 12.3063V12.3163M1.22969 12.3063V12.3163M1.22969 12.3163V12.3264M1.22969 12.3163V12.3264M1.22969 12.3264V12.3365M1.22969 12.3264V12.3365M1.22969 12.3365V12.3466M1.22969 12.3365V12.3466M1.22969 12.3466V12.3566M1.22969 12.3466V12.3566M1.22969 12.3566V12.3667M1.22969 12.3566V12.3667M1.22969 12.3667V12.3768M1.22969 12.3667V12.3768M1.22969 12.3768V12.3869M1.22969 12.3768V12.3869M1.22969 12.3869V12.3969M1.22969 12.3869V12.3969M1.22969 12.3969V12.407M1.22969 12.3969V12.407M1.22969 12.407V12.4171M1.22969 12.407V12.4171M1.22969 12.4171V12.4271M1.22969 12.4171V12.4271M1.22969 12.4271V12.4372M1.22969 12.4271V12.4372M1.22969 12.4372V12.4473M1.22969 12.4372V12.4473M1.22969 12.4473V12.4574M1.22969 12.4473V12.4574M1.22969 12.4574V12.4674M1.22969 12.4574V12.4674M1.22969 12.4674V12.4775M1.22969 12.4674V12.4775M1.22969 12.4775V12.4876M1.22969 12.4775V12.4876M1.22969 12.4876V12.4977M1.22969 12.4876V12.4977M1.22969 12.4977V12.5077M1.22969 12.4977V12.5077M1.22969 12.5077V12.5178M1.22969 12.5077V12.5178M1.22969 12.5178V12.5279M1.22969 12.5178V12.5279M1.22969 12.5279V12.5379M1.22969 12.5279V12.5379M1.22969 12.5379V12.548M1.22969 12.5379V12.548M1.22969 12.548V12.5581M1.22969 12.548V12.5581M1.22969 12.5581V12.5682M1.22969 12.5581V12.5682M1.22969 12.5682V12.5782M1.22969 12.5682V12.5782M1.22969 12.5782V12.5883M1.22969 12.5782V12.5883M1.22969 12.5883V12.5984M1.22969 12.5883V12.5984M1.22969 12.5984V12.6084M1.22969 12.5984V12.6084M1.22969 12.6084V12.6185M1.22969 12.6084V12.6185M1.22969 12.6185V12.6286M1.22969 12.6185V12.6286M1.22969 12.6286V12.6387M1.22969 12.6286V12.6387M1.22969 12.6387V12.6487M1.22969 12.6387V12.6487M1.22969 12.6487V12.6588M1.22969 12.6487V12.6588M1.22969 12.6588V12.6689M1.22969 12.6588V12.6689M1.22969 12.6689V12.6789M1.22969 12.6689V12.6789M1.22969 12.6789V12.689M1.22969 12.6789V12.689M1.22969 12.689V12.6991M1.22969 12.689V12.6991M1.22969 12.6991V12.7092M1.22969 12.6991V12.7092M1.22969 12.7092V12.7192M1.22969 12.7092V12.7192M1.22969 12.7192V12.7293M1.22969 12.7192V12.7293M1.22969 12.7293V12.7394M1.22969 12.7293V12.7394M1.22969 12.7394V12.7494M1.22969 12.7394V12.7494M1.22969 12.7494V12.7595M1.22969 12.7494V12.7595M1.22969 12.7595V12.7696M1.22969 12.7595V12.7696M1.22969 12.7696V12.7797M1.22969 12.7696V12.7797M1.22969 12.7797V12.7897M1.22969 12.7797V12.7897M1.22969 12.7897V12.7998M1.22969 12.7897V12.7998M1.22969 12.7998V12.8099M1.22969 12.7998V12.8099M1.22969 12.8099V12.8199M1.22969 12.8099V12.8199M1.22969 12.8199V12.83M1.22969 12.8199V12.83M1.22969 12.83V12.8401M1.22969 12.83V12.8401M1.22969 12.8401V12.8501M1.22969 12.8401V12.8501M1.22969 12.8501V12.8602M1.22969 12.8501V12.8602M1.22969 12.8602V12.8703M1.22969 12.8602V12.8703M1.22969 12.8703V12.8804M1.22969 12.8703V12.8804M1.22969 12.8804V12.8904M1.22969 12.8804V12.8904M1.22969 12.8904V12.9005M1.22969 12.8904V12.9005M1.22969 12.9005V12.9106M1.22969 12.9005V12.9106M1.22969 12.9106V12.9206M1.22969 12.9106V12.9206M1.22969 12.9206V12.9307M1.22969 12.9206V12.9307M1.22969 12.9307V12.9408M1.22969 12.9307V12.9408M1.22969 12.9408V12.9508M1.22969 12.9408V12.9508M1.22969 12.9508V12.9609M1.22969 12.9508V12.9609M1.22969 12.9609V12.971M1.22969 12.9609V12.971M1.22969 12.971V12.9811M1.22969 12.971V12.9811M1.22969 12.9811V12.9911M1.22969 12.9811V12.9911M1.22969 12.9911V13.0012M1.22969 12.9911V13.0012M1.22969 13.0012V13.0113M1.22969 13.0012V13.0113M1.22969 13.0113V13.0213M1.22969 13.0113V13.0213M1.22969 13.0213V13.0314M1.22969 13.0213V13.0314M1.22969 13.0314V13.0415M1.22969 13.0314V13.0415M1.22969 13.0415V13.0515M1.22969 13.0415V13.0515M1.22969 13.0515V13.0616M1.22969 13.0515V13.0616M1.22969 13.0616V13.0717M1.22969 13.0616V13.0717M1.22969 13.0717V13.0817M1.22969 13.0717V13.0817M1.22969 13.0817V13.0918M1.22969 13.0817V13.0918M1.22969 13.0918V13.1019M1.22969 13.0918V13.1019M1.22969 13.1019V13.112M1.22969 13.1019V13.112M1.22969 13.112V13.122M1.22969 13.112V13.122M1.22969 13.122V13.1321M1.22969 13.122V13.1321M1.22969 13.1321V13.1422M1.22969 13.1321V13.1422M1.22969 13.1422V13.1522M1.22969 13.1422V13.1522M1.22969 13.1522V13.1623M1.22969 13.1522V13.1623M1.22969 13.1623V13.1724M1.22969 13.1623V13.1724M1.22969 13.1724V13.1824M1.22969 13.1724V13.1824M1.22969 13.1824V13.1925M1.22969 13.1824V13.1925M1.22969 13.1925V13.2026M1.22969 13.1925V13.2026M1.22969 13.2026V13.2126M1.22969 13.2026V13.2126M1.22969 13.2126V13.2227M1.22969 13.2126V13.2227M1.22969 13.2227V13.2328M1.22969 13.2227V13.2328M1.22969 13.2328V13.2428M1.22969 13.2328V13.2428M1.22969 13.2428V13.2529M1.22969 13.2428V13.2529M1.22969 13.2529V13.263M1.22969 13.2529V13.263M1.22969 13.263V13.273M1.22969 13.263V13.273M1.22969 13.273V13.2831M1.22969 13.273V13.2831M1.22969 13.2831V13.2932M1.22969 13.2831V13.2932M1.22969 13.2932V13.3032M1.22969 13.2932V13.3032M1.22969 13.3032V13.3133M1.22969 13.3032V13.3133M1.22969 13.3133V13.3234M1.22969 13.3133V13.3234M1.22969 13.3234V13.3335M1.22969 13.3234V13.3335M1.22969 13.3335V13.3435M1.22969 13.3335V13.3435M1.22969 13.3435V13.3536M1.22969 13.3435V13.3536M1.22969 13.3536V13.3637M1.22969 13.3536V13.3637M1.22969 13.3637V13.3737M1.22969 13.3637V13.3737M1.22969 13.3737V13.3838M1.22969 13.3737V13.3838M1.22969 13.3838V13.3939M1.22969 13.3838V13.3939M1.22969 13.3939V13.4039M1.22969 13.3939V13.4039M1.22969 13.4039V13.414M1.22969 13.4039V13.414M1.22969 13.414V13.4241M1.22969 13.414V13.4241M1.22969 13.4241V13.4341M1.22969 13.4241V13.4341M1.22969 13.4341V13.4442M1.22969 13.4341V13.4442M1.22969 13.4442V13.4543M1.22969 13.4442V13.4543M1.22969 13.4543V13.4643M1.22969 13.4543V13.4643M1.22969 13.4643V13.4744M1.22969 13.4643V13.4744M1.22969 13.4744V13.4845M1.22969 13.4744V13.4845M1.22969 13.4845V13.4945M1.22969 13.4845V13.4945M1.22969 13.4945V13.5046M1.22969 13.4945V13.5046M1.22969 13.5046V13.5147M1.22969 13.5046V13.5147M1.22969 13.5147V13.5247M1.22969 13.5147V13.5247M1.22969 13.5247V13.5348M1.22969 13.5247V13.5348M1.22969 13.5348V13.5449M1.22969 13.5348V13.5449M1.22969 13.5449V13.5549M1.22969 13.5449V13.5549M1.22969 13.5549V13.565M1.22969 13.5549V13.565M1.22969 13.565V13.5751M1.22969 13.565V13.5751M1.22969 13.5751V13.5851M1.22969 13.5751V13.5851M1.22969 13.5851V13.5952M1.22969 13.5851V13.5952M1.22969 13.5952V13.6053M1.22969 13.5952V13.6053M1.22969 13.6053V13.6153M1.22969 13.6053V13.6153M1.22969 13.6153V13.6254M1.22969 13.6153V13.6254M1.22969 13.6254V13.6355M1.22969 13.6254V13.6355M1.22969 13.6355V13.6455M1.22969 13.6355V13.6455M1.22969 13.6455V13.6556M1.22969 13.6455V13.6556M1.22969 13.6556V13.6657M1.22969 13.6556V13.6657M1.22969 13.6657V13.6757M1.22969 13.6657V13.6757M1.22969 13.6757V13.6858M1.22969 13.6757V13.6858M1.22969 13.6858V13.6959M1.22969 13.6858V13.6959M1.22969 13.6959V13.7059M1.22969 13.6959V13.7059M1.22969 13.7059V13.716M1.22969 13.7059V13.716M1.22969 13.716V13.7261M1.22969 13.716V13.7261M1.22969 13.7261V13.7361M1.22969 13.7261V13.7361M1.22969 13.7361V13.7462M1.22969 13.7361V13.7462M1.22969 13.7462V13.7563M1.22969 13.7462V13.7563M1.22969 13.7563V13.7663M1.22969 13.7563V13.7663M1.22969 13.7663V13.7764M1.22969 13.7663V13.7764M1.22969 13.7764V13.7865M1.22969 13.7764V13.7865M1.22969 13.7865V13.7965M1.22969 13.7865V13.7965M1.22969 13.7965V13.8066M1.22969 13.7965V13.8066M1.22969 13.8066V13.8167M1.22969 13.8066V13.8167M1.22969 13.8167V13.8267M1.22969 13.8167V13.8267M1.22969 13.8267V13.8368M1.22969 13.8267V13.8368M1.22969 13.8368V13.8469M1.22969 13.8368V13.8469M1.22969 13.8469V13.8569M1.22969 13.8469V13.8569M1.22969 13.8569V13.867M1.22969 13.8569V13.867M1.22969 13.867V13.8771M1.22969 13.867V13.8771M1.22969 13.8771V13.8871M1.22969 13.8771V13.8871M1.22969 13.8871V13.8972M1.22969 13.8871V13.8972M1.22969 13.8972V13.9073M1.22969 13.8972V13.9073M1.22969 13.9073V13.9173M1.22969 13.9073V13.9173M1.22969 13.9173V13.9274M1.22969 13.9173V13.9274M1.22969 13.9274V13.9375M1.22969 13.9274V13.9375M1.22969 13.9375V13.9475M1.22969 13.9375V13.9475M1.22969 13.9475V13.9576M1.22969 13.9475V13.9576M1.22969 13.9576V13.9677M1.22969 13.9576V13.9677M1.22969 13.9677V13.9777M1.22969 13.9677V13.9777M1.22969 13.9777V13.9878M1.22969 13.9777V13.9878M1.22969 13.9878V13.9979M1.22969 13.9878V13.9979M1.22969 13.9979V14.0079M1.22969 13.9979V14.0079M1.22969 14.0079V14.018M1.22969 14.0079V14.018M1.22969 14.018V14.0281M1.22969 14.018V14.0281M1.22969 14.0281V14.0381M1.22969 14.0281V14.0381M1.22969 14.0381V14.0482M1.22969 14.0381V14.0482M1.22969 14.0482V14.0583M1.22969 14.0482V14.0583M1.22969 14.0583V14.0683M1.22969 14.0583V14.0683M1.22969 14.0683V14.0784M1.22969 14.0683V14.0784M1.22969 14.0784V14.0885M1.22969 14.0784V14.0885M1.22969 14.0885V14.0985M1.22969 14.0885V14.0985M1.22969 14.0985V14.1086M1.22969 14.0985V14.1086M1.22969 14.1086V14.1187M1.22969 14.1086V14.1187M1.22969 14.1187V14.1287M1.22969 14.1187V14.1287M1.22969 14.1287V14.1388M1.22969 14.1287V14.1388M1.22969 14.1388V14.1489M1.22969 14.1388V14.1489M1.22969 14.1489V14.1589M1.22969 14.1489V14.1589M1.22969 14.1589V14.169M1.22969 14.1589V14.169M1.22969 14.169V14.1791M1.22969 14.169V14.1791M1.22969 14.1791V14.1891M1.22969 14.1791V14.1891M1.22969 14.1891V14.1992M1.22969 14.1891V14.1992M1.22969 14.1992V14.2093M1.22969 14.1992V14.2093M1.22969 14.2093V14.2193M1.22969 14.2093V14.2193M1.22969 14.2193V14.2294M1.22969 14.2193V14.2294M1.22969 14.2294V14.2395M1.22969 14.2294V14.2395M1.22969 14.2395V14.2495M1.22969 14.2395V14.2495M1.22969 14.2495V14.2596M1.22969 14.2495V14.2596M1.22969 14.2596V14.2697M1.22969 14.2596V14.2697M1.22969 14.2697V14.2797M1.22969 14.2697V14.2797M1.22969 14.2797V14.2898M1.22969 14.2797V14.2898M1.22969 14.2898V14.2999M1.22969 14.2898V14.2999M1.22969 14.2999V14.3099M1.22969 14.2999V14.3099M1.22969 14.3099V14.32M1.22969 14.3099V14.32M1.22969 14.32V14.33M1.22969 14.32V14.33M1.22969 14.33V14.3401M1.22969 14.33V14.3401M1.22969 14.3401V14.3502M1.22969 14.3401V14.3502M1.22969 14.3502V14.3602M1.22969 14.3502V14.3602M1.22969 14.3602V14.3703M1.22969 14.3602V14.3703M1.22969 14.3703V14.3804M1.22969 14.3703V14.3804M1.22969 14.3804V14.3904M1.22969 14.3804V14.3904M1.22969 14.3904V14.4005M1.22969 14.3904V14.4005M1.22969 14.4005V14.4106M1.22969 14.4005V14.4106M1.22969 14.4106V14.4206M1.22969 14.4106V14.4206M1.22969 14.4206V14.4307M1.22969 14.4206V14.4307M1.22969 14.4307V14.4408M1.22969 14.4307V14.4408M1.22969 14.4408V14.4508M1.22969 14.4408V14.4508M1.22969 14.4508V14.4609M1.22969 14.4508V14.4609M1.22969 14.4609V14.471M1.22969 14.4609V14.471M1.22969 14.471V14.481M1.22969 14.471V14.481M1.22969 14.481V14.4911M1.22969 14.481V14.4911M1.22969 14.4911V14.5012M1.22969 14.4911V14.5012M1.22969 14.5012V14.5112M1.22969 14.5012V14.5112M1.22969 14.5112V14.5213M1.22969 14.5112V14.5213M1.22969 14.5213V14.5314M1.22969 14.5213V14.5314M1.22969 14.5314V14.5414M1.22969 14.5314V14.5414M1.22969 14.5414V14.5515M1.22969 14.5414V14.5515M1.22969 14.5515V14.5616M1.22969 14.5515V14.5616M1.22969 14.5616V14.5716M1.22969 14.5616V14.5716M1.22969 14.5716V14.5817M1.22969 14.5716V14.5817M1.22969 14.5817V14.5918M1.22969 14.5817V14.5918M1.22969 14.5918V14.6018M1.22969 14.5918V14.6018M1.22969 14.6018V14.6119M1.22969 14.6018V14.6119M1.22969 14.6119V14.622M1.22969 14.6119V14.622M1.22969 14.622V14.632M1.22969 14.622V14.632M1.22969 14.632V14.6421M1.22969 14.632V14.6421M1.22969 14.6421V14.6522M1.22969 14.6421V14.6522M1.22969 14.6522V14.6622M1.22969 14.6522V14.6622M1.22969 14.6622V14.6723M1.22969 14.6622V14.6723M1.22969 14.6723V14.6824M1.22969 14.6723V14.6824M1.22969 14.6824V14.6924M1.22969 14.6824V14.6924M1.22969 14.6924V14.7025M1.22969 14.6924V14.7025M1.22969 14.7025V14.7126M1.22969 14.7025V14.7126M1.22969 14.7126V14.7226M1.22969 14.7126V14.7226M1.22969 14.7226V14.7327M1.22969 14.7226V14.7327M1.22969 14.7327V14.7428M1.22969 14.7327V14.7428M1.22969 14.7428V14.7528M1.22969 14.7428V14.7528M1.22969 14.7528V14.7629M1.22969 14.7528V14.7629M1.22969 14.7629V14.773M1.22969 14.7629V14.773M1.22969 14.773V14.783M1.22969 14.773V14.783M1.22969 14.783V14.7931M1.22969 14.783V14.7931M1.22969 14.7931V14.8032M1.22969 14.7931V14.8032M1.22969 14.8032V14.8132M1.22969 14.8032V14.8132M1.22969 14.8132V14.8233M1.22969 14.8132V14.8233M1.22969 14.8233V14.8334M1.22969 14.8233V14.8334M1.22969 14.8334V14.8434M1.22969 14.8334V14.8434M1.22969 14.8434V14.8535M1.22969 14.8434V14.8535M1.22969 14.8535V14.8636M1.22969 14.8535V14.8636M1.22969 14.8636V14.8736M1.22969 14.8636V14.8736M1.22969 14.8736V14.8837M1.22969 14.8736V14.8837M1.22969 14.8837V14.8938M1.22969 14.8837V14.8938M1.22969 14.8938V14.9038M1.22969 14.8938V14.9038M1.22969 14.9038V14.9139M1.22969 14.9038V14.9139M1.22969 14.9139V14.924M1.22969 14.9139V14.924M1.22969 14.924V14.934M1.22969 14.924V14.934M1.22969 14.934V14.9441M1.22969 14.934V14.9441M1.22969 14.9441V14.9542M1.22969 14.9441V14.9542M1.22969 14.9542V14.9642M1.22969 14.9542V14.9642M1.22969 14.9642V14.9743M1.22969 14.9642V14.9743M1.22969 14.9743V14.9844M1.22969 14.9743V14.9844M1.22969 14.9844V14.9944M1.22969 14.9844V14.9944M1.22969 14.9944V15.0045M1.22969 14.9944V15.0045M1.22969 15.0045V15.0146M1.22969 15.0045V15.0146M1.22969 15.0146V15.0246M1.22969 15.0146V15.0246M1.22969 15.0246V15.0347M1.22969 15.0246V15.0347M1.22969 15.0347V15.0448M1.22969 15.0347V15.0448M1.22969 15.0448V15.0548M1.22969 15.0448V15.0548M1.22969 15.0548V15.0649M1.22969 15.0548V15.0649M1.22969 15.0649V15.075M1.22969 15.0649V15.075M1.22969 15.075V15.0851M1.22969 15.075V15.0851M1.22969 15.0851V15.0951M1.22969 15.0851V15.0951M1.22969 15.0951V15.1052M1.22969 15.0951V15.1052M1.22969 15.1052V15.1153M1.22969 15.1052V15.1153M1.22969 15.1153V15.1253M1.22969 15.1153V15.1253M1.22969 15.1253V15.1354M1.22969 15.1253V15.1354M1.22969 15.1354V15.1455M1.22969 15.1354V15.1455M1.22969 15.1455V15.1555M1.22969 15.1455V15.1555M1.22969 15.1555V15.1656M1.22969 15.1555V15.1656M1.22969 15.1656V15.1757M1.22969 15.1656V15.1757M1.22969 15.1757V15.1857M1.22969 15.1757V15.1857M1.22969 15.1857V15.1958M1.22969 15.1857V15.1958M1.22969 15.1958V15.2059M1.22969 15.1958V15.2059M1.22969 15.2059V15.2159M1.22969 15.2059V15.2159M1.22969 15.2159V15.226M1.22969 15.2159V15.226M1.22969 15.226V15.2361M1.22969 15.226V15.2361M1.22969 15.2361V15.2461M1.22969 15.2361V15.2461M1.22969 15.2461V15.2562M1.22969 15.2461V15.2562M1.22969 15.2562V15.2663M1.22969 15.2562V15.2663M1.22969 15.2663V15.2763M1.22969 15.2663V15.2763M1.22969 15.2763V15.2864M1.22969 15.2763V15.2864M1.22969 15.2864V15.2965M1.22969 15.2864V15.2965M1.22969 15.2965V15.3065M1.22969 15.2965V15.3065M1.22969 15.3065V15.3166M1.22969 15.3065V15.3166M1.22969 15.3166V15.3267M1.22969 15.3166V15.3267M1.22969 15.3267V15.3368M1.22969 15.3267V15.3368M1.22969 15.3368V15.3468M1.22969 15.3368V15.3468M1.22969 15.3468V15.3569M1.22969 15.3468V15.3569M1.22969 15.3569V15.367M1.22969 15.3569V15.367M1.22969 15.367V15.377M1.22969 15.367V15.377M1.22969 15.377V15.3871M1.22969 15.377V15.3871M1.22969 15.3871V15.3972M1.22969 15.3871V15.3972M1.22969 15.3972V15.4072M1.22969 15.3972V15.4072M1.22969 15.4072V15.4173M1.22969 15.4072V15.4173M1.22969 15.4173V15.4274M1.22969 15.4173V15.4274M1.22969 15.4274V15.4374M1.22969 15.4274V15.4374M1.22969 15.4374V15.4475M1.22969 15.4374V15.4475M1.22969 15.4475V15.4576M1.22969 15.4475V15.4576M1.22969 15.4576V15.4677M1.22969 15.4576V15.4677M1.22969 15.4677V15.4777M1.22969 15.4677V15.4777M1.22969 15.4777V15.4878M1.22969 15.4777V15.4878M1.22969 15.4878V15.4979M1.22969 15.4878V15.4979M1.22969 15.4979V15.5079M1.22969 15.4979V15.5079M1.22969 15.5079V15.518M1.22969 15.5079V15.518M1.22969 15.518V15.5281M1.22969 15.518V15.5281M1.22969 15.5281V15.5381M1.22969 15.5281V15.5381M1.22969 15.5381V15.5482M1.22969 15.5381V15.5482M1.22969 15.5482V15.5583M1.22969 15.5482V15.5583M1.22969 15.5583V15.5683M1.22969 15.5583V15.5683M1.22969 15.5683V15.5784M1.22969 15.5683V15.5784M1.22969 15.5784V15.5885M1.22969 15.5784V15.5885M1.22969 15.5885V15.5986M1.22969 15.5885V15.5986M1.22969 15.5986V15.6086M1.22969 15.5986V15.6086M1.22969 15.6086V15.6187M1.22969 15.6086V15.6187M1.22969 15.6187V15.6288M1.22969 15.6187V15.6288M1.22969 15.6288V15.6388M1.22969 15.6288V15.6388M1.22969 15.6388V15.6489M1.22969 15.6388V15.6489M1.22969 15.6489V15.659M1.22969 15.6489V15.659M1.22969 15.659V15.669M1.22969 15.659V15.669M1.22969 15.669V15.6791M1.22969 15.669V15.6791M1.22969 15.6791V15.6892M1.22969 15.6791V15.6892M1.22969 15.6892V15.6993M1.22969 15.6892V15.6993M1.22969 15.6993V15.7093M1.22969 15.6993V15.7093M1.22969 15.7093V15.7194M1.22969 15.7093V15.7194M1.22969 15.7194V15.7295M1.22969 15.7194V15.7295M1.22969 15.7295V15.7395M1.22969 15.7295V15.7395M1.22969 15.7395V15.7496M1.22969 15.7395V15.7496M1.22969 15.7496V15.7597M1.22969 15.7496V15.7597M1.22969 15.7597V15.7698M1.22969 15.7597V15.7698M1.22969 15.7698V15.7798M1.22969 15.7698V15.7798M1.22969 15.7798V15.7899M1.22969 15.7798V15.7899M1.22969 15.7899V15.8M1.22969 15.7899V15.8M1.22969 15.8V15.81M1.22969 15.8V15.81M1.22969 15.81V15.8201M1.22969 15.81V15.8201M1.22969 15.8201V15.8302M1.22969 15.8201V15.8302M1.22969 15.8302V15.8403M1.22969 15.8302V15.8403M1.22969 15.8403V15.8503M1.22969 15.8403V15.8503M1.22969 15.8503V15.8604M1.22969 15.8503V15.8604M1.22969 15.8604V15.8705M1.22969 15.8604V15.8705M1.22969 15.8705V15.8805M1.22969 15.8705V15.8805M1.22969 15.8805V15.8906M1.22969 15.8805V15.8906M1.22969 15.8906V15.9007M1.22969 15.8906V15.9007M1.22969 15.9007V15.9108M1.22969 15.9007V15.9108M1.22969 15.9108V15.9208M1.22969 15.9108V15.9208M1.22969 15.9208V15.9309M1.22969 15.9208V15.9309M1.22969 15.9309V15.941M1.22969 15.9309V15.941M1.22969 15.941V15.951M1.22969 15.941V15.951M1.22969 15.951V15.9611M1.22969 15.951V15.9611M1.22969 15.9611V15.9712M1.22969 15.9611V15.9712M1.22969 15.9712V15.9813M1.22969 15.9712V15.9813M1.22969 15.9813V15.9913M1.22969 15.9813V15.9913M1.22969 15.9913V16.0014M1.22969 15.9913V16.0014M1.22969 16.0014V16.0115M1.22969 16.0014V16.0115M1.22969 16.0115V16.0216M1.22969 16.0115V16.0216M1.22969 16.0216V16.0316M1.22969 16.0216V16.0316M1.22969 16.0316V16.0417M1.22969 16.0316V16.0417M1.22969 16.0417V16.0518M1.22969 16.0417V16.0518M1.22969 16.0518V16.0618M1.22969 16.0518V16.0618M1.22969 16.0618V16.0719M1.22969 16.0618V16.0719M1.22969 16.0719V16.082M1.22969 16.0719V16.082M1.22969 16.082V16.0921M1.22969 16.082V16.0921M1.22969 16.0921V16.1021M1.22969 16.0921V16.1021M1.22969 16.1021V16.1122M1.22969 16.1021V16.1122M1.22969 16.1122V16.1223M1.22969 16.1122V16.1223M1.22969 16.1223V16.1324M1.22969 16.1223V16.1324M1.22969 16.1324V16.1424M1.22969 16.1324V16.1424M1.22969 16.1424V16.1525M1.22969 16.1424V16.1525M1.22969 16.1525V16.1626M1.22969 16.1525V16.1626M1.22969 16.1626V16.1727M1.22969 16.1626V16.1727M1.22969 16.1727V16.1827M1.22969 16.1727V16.1827M1.22969 16.1827V16.1928M1.22969 16.1827V16.1928M1.22969 16.1928V16.2029M1.22969 16.1928V16.2029M1.22969 16.2029V16.2129M1.22969 16.2029V16.2129M1.22969 16.2129V16.223M1.22969 16.2129V16.223M1.22969 16.223V16.2331M1.22969 16.223V16.2331M1.22969 16.2331V16.2432M1.22969 16.2331V16.2432M1.22969 16.2432V16.2532M1.22969 16.2432V16.2532M1.22969 16.2532V16.2633M1.22969 16.2532V16.2633M1.22969 16.2633V16.2734M1.22969 16.2633V16.2734M1.22969 16.2734V16.2835M1.22969 16.2734V16.2835M1.22969 16.2835V16.2935M1.22969 16.2835V16.2935M1.22969 16.2935V16.3036M1.22969 16.2935V16.3036M1.22969 16.3036V16.3137M1.22969 16.3036V16.3137M1.22969 16.3137V16.3238M1.22969 16.3137V16.3238M1.22969 16.3238V16.3338M1.22969 16.3238V16.3338M1.22969 16.3338V16.3439M1.22969 16.3338V16.3439M1.22969 16.3439V16.354M1.22969 16.3439V16.354M1.22969 16.354V16.3641M1.22969 16.354V16.3641M1.22969 16.3641V16.3741M1.22969 16.3641V16.3741M1.22969 16.3741V16.3842M1.22969 16.3741V16.3842M1.22969 16.3842V16.3943M1.22969 16.3842V16.3943M1.22969 16.3943V16.4044M1.22969 16.3943V16.4044M1.22969 16.4044V16.4145M1.22969 16.4044V16.4145M1.22969 16.4145V16.4245M1.22969 16.4145V16.4245M1.22969 16.4245V16.4346M1.22969 16.4245V16.4346M1.22969 16.4346V16.4447M1.22969 16.4346V16.4447M1.22969 16.4447V16.4548M1.22969 16.4447V16.4548M1.22969 16.4548V16.4648M1.22969 16.4548V16.4648M1.22969 16.4648V16.4749M1.22969 16.4648V16.4749M1.22969 16.4749V16.485M1.22969 16.4749V16.485M1.22969 16.485V16.4951M1.22969 16.485V16.4951M1.22969 16.4951V16.5051M1.22969 16.4951V16.5051M1.22969 16.5051V16.5152M1.22969 16.5051V16.5152M1.22969 16.5152V16.5253M1.22969 16.5152V16.5253M1.22969 16.5253V16.5354M1.22969 16.5253V16.5354M1.22969 16.5354V16.5455M1.22969 16.5354V16.5455M1.22969 16.5455V16.5555M1.22969 16.5455V16.5555M1.22969 16.5555V16.5656M1.22969 16.5555V16.5656M1.22969 16.5656V16.5757M1.22969 16.5656V16.5757M1.22969 16.5757V16.5858M1.22969 16.5757V16.5858M1.22969 16.5858V16.5958M1.22969 16.5858V16.5958M1.22969 16.5958V16.6059M1.22969 16.5958V16.6059M1.22969 16.6059V16.616M1.22969 16.6059V16.616M1.22969 16.616V16.6261M1.22969 16.616V16.6261M1.22969 16.6261V16.6361M1.22969 16.6261V16.6361M1.22969 16.6361V16.6462M1.22969 16.6361V16.6462M1.22969 16.6462V16.6563M1.22969 16.6462V16.6563M1.22969 16.6563V16.6664M1.22969 16.6563V16.6664M1.22969 16.6664V16.6765M1.22969 16.6664V16.6765M1.22969 16.6765V16.6865M1.22969 16.6765V16.6865M1.22969 16.6865V16.6966M1.22969 16.6865V16.6966M1.22969 16.6966V16.7067M1.22969 16.6966V16.7067M1.22969 16.7067V16.7168M1.22969 16.7067V16.7168M1.22969 16.7168V16.7269M1.22969 16.7168V16.7269M1.22969 16.7269V16.7369M1.22969 16.7269V16.7369M1.22969 16.7369V16.747M1.22969 16.7369V16.747M1.22969 16.747V16.7571M1.22969 16.747V16.7571M1.22969 16.7571V16.7672M1.22969 16.7571V16.7672M1.22969 16.7672V16.7773M1.22969 16.7672V16.7773M1.22969 16.7773V16.7873M1.22969 16.7773V16.7873M1.22969 16.7873C1.22969 17.6362 1.42732 18.4506 1.87958 19.1903L1.22969 16.7873ZM16.342 1.2499C13.9365 1.22119 11.5301 1.22816 9.12801 1.23512M16.342 1.2499L9.12801 1.23512M9.12801 1.23512C8.38945 1.23726 7.6513 1.23939 6.91371 1.24049L9.12801 1.23512Z" fill="#434343" stroke="#434343"/>
<path d="M11.6492 16.5999C8.62579 16.5999 6.18829 14.1905 6.1836 11.1905C6.17891 8.23736 8.63516 5.81861 11.6399 5.81861C14.654 5.81392 17.1008 8.22798 17.1054 11.2045C17.1054 14.1764 14.6633 16.5952 11.6492 16.5999ZM11.6492 14.8655C13.707 14.8655 15.3758 13.2202 15.371 11.1952C15.3664 9.18892 13.6977 7.54829 11.6492 7.54829C9.59141 7.54829 7.91329 9.18424 7.91329 11.2045C7.91797 13.2295 9.59141 14.8701 11.6492 14.8655Z" fill="#434343"/>
<path d="M17.7375 4.17798C18.3703 4.17798 18.8859 4.71705 18.8859 5.37798C18.8812 6.03893 18.361 6.5733 17.7282 6.5686C17.1047 6.56392 16.5938 6.02955 16.5938 5.38267C16.5891 4.72174 17.1047 4.17798 17.7375 4.17798Z" fill="#434343"/>
</g>
<defs>
<clipPath id="clip0_92_531">
<rect width="24" height="24" fill="white"/>
</clipPath>
</defs>
</svg>
