<svg width="18" height="18" viewBox="0 0 18 18" fill="none" xmlns="http://www.w3.org/2000/svg">
<path d="M17.434 9.071C17.434 10.2944 17.4094 11.5214 17.441 12.7448C17.4937 14.9104 16.1332 16.5839 14.4 17.3292C13.7039 17.628 12.9727 17.7862 12.2168 17.7862C9.85078 17.7897 7.48125 17.8214 5.11523 17.7757C3.33281 17.7405 1.8668 16.9952 0.815625 15.5257C0.263672 14.7522 0 13.8733 0 12.9206C0 10.3999 0 7.88272 0 5.36201C0 3.30537 1.00195 1.86748 2.78086 0.932326C3.5543 0.528029 4.39453 0.355764 5.26992 0.352248C7.56562 0.352248 9.86484 0.338186 12.1605 0.359279C13.943 0.373342 15.4301 1.05537 16.527 2.48975C17.1387 3.29131 17.434 4.2124 17.434 5.2249C17.434 6.50459 17.434 7.78779 17.434 9.071ZM1.29727 9.071C1.29727 10.3612 1.29727 11.648 1.29727 12.9382C1.29727 13.5147 1.43086 14.0562 1.72969 14.5448C2.51367 15.828 3.69844 16.4538 5.16797 16.4784C7.52695 16.5136 9.88945 16.4925 12.252 16.4854C12.832 16.4854 13.3945 16.3659 13.9184 16.1163C15.3457 15.4343 16.1437 14.3479 16.1367 12.7167C16.1227 10.2206 16.1332 7.72451 16.1332 5.22842C16.1332 4.52178 15.9328 3.8749 15.5145 3.30537C14.7059 2.21201 13.5879 1.67412 12.252 1.66006C9.89648 1.63194 7.54102 1.64951 5.18555 1.65303C4.68281 1.65303 4.19766 1.75498 3.72656 1.93076C2.43281 2.4124 1.23047 3.63233 1.28672 5.42881C1.32891 6.64522 1.29727 7.85811 1.29727 9.071Z" fill="#434343"/>
<path d="M8.73633 12.7979C6.46875 12.7979 4.64063 10.9908 4.63711 8.74083C4.6336 6.52598 6.47578 4.71192 8.7293 4.71192C10.9898 4.7084 12.825 6.51895 12.8285 8.75137C12.8285 10.9803 10.9969 12.7943 8.73633 12.7979ZM8.73633 11.4971C10.2797 11.4971 11.5313 10.2631 11.5277 8.74434C11.5242 7.23965 10.2727 6.00918 8.73633 6.00918C7.19297 6.00918 5.93438 7.23614 5.93438 8.75137C5.93789 10.2701 7.19297 11.5006 8.73633 11.4971Z" fill="#434343"/>
<path d="M13.3031 3.48145C13.7777 3.48145 14.1645 3.88574 14.1645 4.38145C14.1609 4.87715 13.7707 5.27793 13.2961 5.27441C12.8285 5.2709 12.4453 4.87012 12.4453 4.38496C12.4418 3.88926 12.8285 3.48145 13.3031 3.48145Z" fill="#434343"/>
</svg>
