<svg width="18" height="18" viewBox="0 0 18 18" fill="none" xmlns="http://www.w3.org/2000/svg">
<path d="M17.434 8.72334C17.434 9.94678 17.4094 11.1737 17.441 12.3972C17.4938 14.5628 16.1332 16.2362 14.4 16.9815C13.7039 17.2804 12.9727 17.4386 12.2168 17.4386C9.85078 17.4421 7.48125 17.4737 5.11523 17.428C3.33281 17.3929 1.8668 16.6476 0.815625 15.178C0.263672 14.4046 0 13.5257 0 12.5729C0 10.0522 0 7.53506 0 5.01436C0 2.95772 1.00195 1.51983 2.78086 0.58467C3.5543 0.180373 4.39453 0.00810747 5.26992 0.00459184C7.56562 0.00459184 9.86484 -0.00947067 12.1605 0.0116231C13.943 0.0256856 15.4301 0.707717 16.527 2.14209C17.1387 2.94365 17.434 3.86475 17.434 4.87725C17.434 6.15694 17.434 7.44014 17.434 8.72334ZM1.29727 8.72334C1.29727 10.0136 1.29727 11.3003 1.29727 12.5905C1.29727 13.1671 1.43086 13.7085 1.72969 14.1972C2.51367 15.4804 3.69844 16.1062 5.16797 16.1308C7.52695 16.1659 9.88945 16.1448 12.252 16.1378C12.832 16.1378 13.3945 16.0183 13.9184 15.7687C15.3457 15.0866 16.1438 14.0003 16.1367 12.369C16.1227 9.87295 16.1332 7.37686 16.1332 4.88076C16.1332 4.17412 15.9328 3.52725 15.5145 2.95772C14.7059 1.86436 13.5879 1.32647 12.252 1.3124C9.89648 1.28428 7.54102 1.30186 5.18555 1.30537C4.68281 1.30537 4.19766 1.40733 3.72656 1.58311C2.43281 2.06475 1.23047 3.28467 1.28672 5.08115C1.32891 6.29756 1.29727 7.51045 1.29727 8.72334Z" fill="#434343"/>
<path d="M8.73634 12.4499C6.46876 12.4499 4.64064 10.6429 4.63712 8.39286C4.6336 6.17802 6.47579 4.36396 8.72931 4.36396C10.9899 4.36044 12.825 6.17099 12.8285 8.40341C12.8285 10.6323 10.9969 12.4464 8.73634 12.4499ZM8.73634 11.1491C10.2797 11.1491 11.5313 9.91513 11.5277 8.39638C11.5242 6.89169 10.2727 5.66122 8.73634 5.66122C7.19298 5.66122 5.93439 6.88818 5.93439 8.40341C5.9379 9.92216 7.19298 11.1526 8.73634 11.1491Z" fill="#434343"/>
<path d="M13.3031 3.13348C13.7777 3.13348 14.1644 3.53778 14.1644 4.03348C14.1609 4.52919 13.7707 4.92997 13.2961 4.92645C12.8285 4.92294 12.4453 4.52216 12.4453 4.037C12.4418 3.5413 12.8285 3.13348 13.3031 3.13348Z" fill="#434343"/>
</svg>
