<svg width="171" height="47" viewBox="0 0 171 47" fill="none" xmlns="http://www.w3.org/2000/svg">
<path d="M86.5304 20.999C86.8899 21.3585 87.0696 21.7629 87.0696 22.2123V45.9398C87.0696 46.4342 86.8225 46.6813 86.3281 46.6813H82.5533C82.059 46.6813 81.8118 46.4342 81.8118 45.9398V34.4131V30.7731V20.999C81.8118 20.235 81.5871 19.6284 81.1377 19.179C80.6884 18.6846 80.0817 18.4375 79.3177 18.4375H64.6903C63.8814 18.4375 63.2522 18.6846 62.8028 19.179C62.3535 19.6284 62.1288 20.235 62.1288 20.999V23.5412C62.1288 24.0355 61.8816 24.2827 61.3873 24.2827H57.6124C57.1181 24.2827 56.871 24.0355 56.871 23.5412V22.2123C56.871 21.7629 57.0507 21.3585 57.4102 20.999L63.7947 13.6515C64.1093 13.337 64.5137 13.1797 65.008 13.1797H79C79.4493 13.1797 79.8313 13.337 80.1459 13.6515L86.5304 20.999Z" fill="white"/>
<path d="M62.331 32.7279C62.7804 32.2336 63.4545 31.9864 64.2184 31.9864H79.4526C79.9019 31.9864 80.1716 31.8291 80.2614 31.5146C80.3963 31.2 80.3064 30.863 79.9918 30.5035L76.7562 27.2005C76.4417 26.8859 76.0372 26.7286 75.5429 26.7286H65.4992C65.0498 26.7286 64.6004 26.8859 64.2858 27.2005L56.9384 33.585C56.5789 33.9445 56.3991 34.3264 56.3991 34.7309V38.6791C56.3991 39.1284 56.5564 39.5104 56.871 39.825L64.2184 46.2095C64.533 46.524 64.9374 46.6813 65.4317 46.6813H75.4755C75.9698 46.6813 76.3743 46.524 76.6888 46.2095L79.9244 42.9065C80.239 42.547 80.3289 42.2099 80.194 41.8954C80.1042 41.5808 79.8345 41.4235 79.3851 41.4235H64.151C62.4883 41.4235 61.6569 40.5922 61.6569 38.9294V34.5479C61.6569 33.784 61.8816 33.1773 62.331 32.7279Z" fill="white"/>
<path d="M94.3184 45.9584V7.75189C94.3184 6.98793 94.0713 6.38126 93.5769 5.93188C93.1276 5.48249 92.5209 5.2578 91.7569 5.2578H87.9821C87.4878 5.2578 87.2406 5.01064 87.2406 4.51632V0.741487C87.2406 0.247162 87.4878 0 87.9821 0H90.4762C90.9705 0 91.375 0.157285 91.6895 0.471856L98.9696 7.81929C99.3291 8.1788 99.5088 8.58325 99.5088 9.03263V45.9584C99.5088 46.4528 99.2617 46.6999 98.7673 46.6999H95.0599C94.5656 46.6999 94.3184 46.4528 94.3184 45.9584Z" fill="white"/>
<path d="M115.67 46.6813C115.176 46.6813 114.772 46.524 114.457 46.2095L107.11 38.862C106.795 38.5475 106.638 38.143 106.638 37.6487V13.9212C106.638 13.4268 106.885 13.1797 107.379 13.1797H111.154C111.603 13.1797 111.828 13.4268 111.828 13.9212V38.9294C111.828 39.6934 112.053 40.3001 112.502 40.7494C112.997 41.1988 113.626 41.4235 114.39 41.4235H128.391C129.155 41.4235 129.784 41.1988 130.278 40.7494C130.728 40.3001 130.952 39.6934 130.952 38.9294V13.9212C130.952 13.4268 131.177 13.1797 131.626 13.1797H135.401C135.895 13.1797 136.143 13.4268 136.143 13.9212V37.6487C136.143 38.143 135.985 38.5475 135.671 38.862L128.323 46.2095C128.009 46.524 127.604 46.6813 127.11 46.6813H127.032H115.748H115.67Z" fill="white"/>
<path d="M142.15 25.6694L149.497 32.0538C149.812 32.3684 150.216 32.5257 150.71 32.5257L163.113 32.5257H163.248C164.012 32.5257 164.619 32.7504 165.068 33.1998C165.518 33.6941 165.742 34.3232 165.742 35.0872V38.862C165.742 39.626 165.518 40.2326 165.068 40.682C164.619 41.1764 164.012 41.4235 163.248 41.4235H149.901C149.137 41.4235 148.531 41.1764 148.081 40.682C147.587 40.2326 147.34 39.626 147.34 38.862V35.3568C147.34 34.8625 147.093 34.6153 146.598 34.6153H142.824C142.329 34.6153 142.082 34.8625 142.082 35.3568V38.6117C142.082 39.061 142.262 39.4655 142.621 39.825L149.969 46.2095C150.283 46.524 150.688 46.6813 151.182 46.6813H161.967C162.417 46.6813 162.799 46.524 163.113 46.2095L170.461 39.825C170.82 39.4655 171 39.0835 171 38.6791V35.405C171 34.9556 170.82 34.5511 170.461 34.1916L163.113 27.8072C162.799 27.4926 162.394 27.3353 161.9 27.3353H149.362C148.598 27.3353 147.992 27.1106 147.542 26.6612C147.093 26.1669 146.868 25.5378 146.868 24.7738V20.999C146.868 20.235 147.093 19.6284 147.542 19.179C147.992 18.6846 148.598 18.4375 149.362 18.4375H162.709C163.473 18.4375 164.079 18.6846 164.529 19.179C165.023 19.6284 165.27 20.235 165.27 20.999V24.5042C165.27 24.9985 165.518 25.2457 166.012 25.2457H169.787C170.281 25.2457 170.528 24.9985 170.528 24.5042V22.2123C170.528 21.7629 170.348 21.3585 169.989 20.999L162.641 13.6515C162.327 13.337 161.922 13.1797 161.428 13.1797H150.643C150.194 13.1797 149.812 13.337 149.497 13.6515L142.15 20.036C141.79 20.3955 141.61 20.7775 141.61 21.1819V24.456C141.61 24.9054 141.79 25.3099 142.15 25.6694Z" fill="white"/>
<path d="M29.5274 1.70364L29.5274 29.8663C29.5274 31.5287 28.9896 32.8489 27.9138 33.8268C26.9359 34.8047 25.6157 35.2937 23.9533 35.2937L15.7388 35.2937C14.663 35.2937 14.1252 35.8316 14.1252 36.9073L14.1252 45.1218C14.1252 46.1975 14.663 46.7354 15.7387 46.7354L21.1662 46.7354C22.2419 46.7354 23.122 46.3931 23.8066 45.7085L39.6489 29.7196C40.4312 28.9372 40.8224 28.0571 40.8224 27.0792L40.8224 1.70364C40.8224 0.627932 40.2845 0.0900711 39.2088 0.090071L31.141 0.0900703C30.0653 0.0900702 29.5274 0.627931 29.5274 1.70364Z" fill="white"/>
<path d="M11.2949 45.1216V16.9589C11.2949 15.2965 11.8328 13.9763 12.9085 12.9984C13.8864 12.0204 15.2066 11.5315 16.8691 11.5315H25.0836C26.1593 11.5315 26.6971 10.9936 26.6971 9.91793V1.70341C26.6971 0.627701 26.1593 0.0898438 25.0836 0.0898438H19.6561C18.5804 0.0898438 17.7003 0.432117 17.0157 1.11666L1.17346 17.1056C0.391129 17.888 -4.00543e-05 18.7681 -4.00543e-05 19.746V45.1216C-4.00543e-05 46.1973 0.537809 46.7351 1.61352 46.7351H9.68135C10.7571 46.7351 11.2949 46.1973 11.2949 45.1216Z" fill="white"/>
</svg>
