<svg width="112" height="31" viewBox="0 0 112 31" fill="none" xmlns="http://www.w3.org/2000/svg">
<path d="M57.1682 13.6308C57.4016 13.8642 57.5183 14.1267 57.5183 14.4185V29.8205C57.5183 30.1414 57.3578 30.3018 57.037 30.3018H54.5866C54.2658 30.3018 54.1053 30.1414 54.1053 29.8205V22.3383V19.9754V13.6308C54.1053 13.1349 53.9595 12.7411 53.6678 12.4494C53.3761 12.1286 52.9823 11.9681 52.4864 11.9681H42.9913C42.4663 11.9681 42.0579 12.1286 41.7662 12.4494C41.4745 12.7411 41.3286 13.1349 41.3286 13.6308V15.2811C41.3286 15.6019 41.1682 15.7624 40.8473 15.7624H38.397C38.0761 15.7624 37.9157 15.6019 37.9157 15.2811V14.4185C37.9157 14.1267 38.0323 13.8642 38.2657 13.6308L42.41 8.86147C42.6142 8.65727 42.8767 8.55518 43.1976 8.55518H52.2801C52.5718 8.55518 52.8197 8.65727 53.0239 8.86147L57.1682 13.6308Z" fill="white"/>
<path d="M41.4599 21.2444C41.7516 20.9235 42.1891 20.763 42.685 20.763H52.5739C52.8656 20.763 53.0406 20.6609 53.0989 20.4568C53.1864 20.2526 53.1281 20.0338 52.9239 19.8004L50.8236 17.6564C50.6194 17.4522 50.3569 17.3501 50.036 17.3501H43.5164C43.2247 17.3501 42.933 17.4522 42.7288 17.6564L37.9594 21.8007C37.7261 22.034 37.6094 22.282 37.6094 22.5445V25.1074C37.6094 25.3991 37.7115 25.647 37.9157 25.8512L42.685 29.9955C42.8892 30.1997 43.1518 30.3018 43.4727 30.3018H49.9923C50.3131 30.3018 50.5757 30.1997 50.7799 29.9955L52.8802 27.8515C53.0843 27.6181 53.1427 27.3993 53.0552 27.1951C52.9968 26.991 52.8218 26.8889 52.5301 26.8889H42.6413C41.562 26.8889 41.0223 26.3492 41.0223 25.2699V22.4258C41.0223 21.9299 41.1682 21.5361 41.4599 21.2444Z" fill="white"/>
<path d="M62.2233 29.8326V5.03192C62.2233 4.53602 62.0628 4.14221 61.742 3.85051C61.4502 3.5588 61.0564 3.41295 60.5605 3.41295H58.1102C57.7893 3.41295 57.6289 3.25252 57.6289 2.93164V0.481315C57.6289 0.160438 57.7893 0 58.1102 0H59.7292C60.0501 0 60.3126 0.102097 60.5168 0.306292L65.2424 5.07567C65.4758 5.30904 65.5925 5.57157 65.5925 5.86328V29.8326C65.5925 30.1535 65.432 30.3139 65.1112 30.3139H62.7046C62.3837 30.3139 62.2233 30.1535 62.2233 29.8326Z" fill="white"/>
<path d="M76.084 30.3018C75.7631 30.3018 75.5006 30.1997 75.2964 29.9955L70.527 25.2261C70.3228 25.0219 70.2207 24.7594 70.2207 24.4385V9.03649C70.2207 8.71561 70.3811 8.55518 70.702 8.55518H73.1523C73.444 8.55518 73.5899 8.71561 73.5899 9.03649V25.2699C73.5899 25.7658 73.7358 26.1596 74.0275 26.4513C74.3483 26.743 74.7567 26.8889 75.2526 26.8889H84.341C84.8369 26.8889 85.2453 26.743 85.5662 26.4513C85.8579 26.1596 86.0038 25.7658 86.0038 25.2699V9.03649C86.0038 8.71561 86.1496 8.55518 86.4413 8.55518H88.8916C89.2125 8.55518 89.373 8.71561 89.373 9.03649V24.4385C89.373 24.7594 89.2708 25.0219 89.0667 25.2261L84.2973 29.9955C84.0931 30.1997 83.8305 30.3018 83.5097 30.3018H83.459H76.1346H76.084Z" fill="white"/>
<path d="M93.2719 16.6625L98.0413 20.8068C98.2455 21.011 98.508 21.1131 98.8289 21.1131L106.88 21.1131H106.967C107.463 21.1131 107.857 21.2589 108.149 21.5506C108.441 21.8715 108.586 22.2799 108.586 22.7758V25.2261C108.586 25.722 108.441 26.1158 108.149 26.4075C107.857 26.7284 107.463 26.8889 106.967 26.8889H98.3038C97.8079 26.8889 97.4141 26.7284 97.1224 26.4075C96.8016 26.1158 96.6411 25.722 96.6411 25.2261V22.9508C96.6411 22.63 96.4807 22.4695 96.1598 22.4695H93.7095C93.3886 22.4695 93.2282 22.63 93.2282 22.9508V25.0636C93.2282 25.3553 93.3449 25.6179 93.5782 25.8512L98.3476 29.9955C98.5518 30.1997 98.8143 30.3018 99.1352 30.3018H106.136C106.428 30.3018 106.676 30.1997 106.88 29.9955L111.649 25.8512C111.883 25.6179 111.999 25.3699 111.999 25.1074V22.9821C111.999 22.6904 111.883 22.4278 111.649 22.1945L106.88 18.0502C106.676 17.846 106.413 17.7439 106.092 17.7439H97.9538C97.4579 17.7439 97.0641 17.598 96.7724 17.3063C96.4807 16.9855 96.3348 16.5771 96.3348 16.0812V13.6308C96.3348 13.1349 96.4807 12.7411 96.7724 12.4494C97.0641 12.1286 97.4579 11.9681 97.9538 11.9681H106.617C107.113 11.9681 107.507 12.1286 107.799 12.4494C108.12 12.7411 108.28 13.1349 108.28 13.6308V15.9061C108.28 16.227 108.441 16.3875 108.761 16.3875H111.212C111.533 16.3875 111.693 16.227 111.693 15.9061V14.4185C111.693 14.1267 111.576 13.8642 111.343 13.6308L106.574 8.86147C106.369 8.65727 106.107 8.55518 105.786 8.55518H98.7852C98.4935 8.55518 98.2455 8.65727 98.0413 8.86147L93.2719 13.0058C93.0386 13.2391 92.9219 13.4871 92.9219 13.7496V15.8749C92.9219 16.1666 93.0386 16.4291 93.2719 16.6625Z" fill="white"/>
<path d="M20.1659 1.1061L20.1659 19.3871C20.1659 20.4662 19.8168 21.3232 19.1185 21.958C18.4837 22.5927 17.6267 22.9101 16.5476 22.9101L11.2154 22.9101C10.5171 22.9101 10.168 23.2593 10.168 23.9575L10.168 29.2898C10.168 29.988 10.5171 30.3372 11.2154 30.3372L14.7384 30.3372C15.4367 30.3372 16.008 30.115 16.4524 29.6706L26.7359 19.2918C27.2438 18.784 27.4977 18.2127 27.4977 17.5779L27.4977 1.1061C27.4977 0.407835 27.1486 0.0586982 26.4503 0.0586982L21.2133 0.0586977C20.515 0.0586977 20.1659 0.407834 20.1659 1.1061Z" fill="white"/>
<path d="M8.33021 29.2899V11.0089C8.33021 9.92979 8.67934 9.07283 9.37761 8.43804C10.0124 7.80325 10.8694 7.48586 11.9485 7.48586H17.2807C17.979 7.48586 18.3281 7.13673 18.3281 6.43846V1.10624C18.3281 0.407973 17.979 0.0588379 17.2807 0.0588379H13.7576C13.0594 0.0588379 12.4881 0.281015 12.0437 0.725368L1.76015 11.1041C1.25233 11.612 0.998407 12.1833 0.998407 12.8181V29.2899C0.998407 29.9882 1.34754 30.3373 2.0458 30.3373H7.28281C7.98107 30.3373 8.33021 29.9882 8.33021 29.2899Z" fill="white"/>
</svg>
