<svg width="158" height="44" viewBox="0 0 158 44" fill="none" xmlns="http://www.w3.org/2000/svg">
<path d="M79.9519 19.4021C80.2841 19.7343 80.4502 20.108 80.4502 20.5232V42.4468C80.4502 42.9036 80.2218 43.1319 79.7651 43.1319H76.2772C75.8205 43.1319 75.5921 42.9036 75.5921 42.4468V31.7964V28.4331V19.4021C75.5921 18.6962 75.3845 18.1357 74.9693 17.7204C74.5541 17.2637 73.9935 17.0353 73.2876 17.0353H59.7722C59.0248 17.0353 58.4435 17.2637 58.0283 17.7204C57.6131 18.1357 57.4055 18.6962 57.4055 19.4021V21.751C57.4055 22.2078 57.1771 22.4362 56.7203 22.4362H53.2325C52.7757 22.4362 52.5474 22.2078 52.5474 21.751V20.5232C52.5474 20.108 52.7135 19.7343 53.0456 19.4021L58.9447 12.6132C59.2354 12.3226 59.6091 12.1772 60.0658 12.1772H72.994C73.4092 12.1772 73.7622 12.3226 74.0528 12.6132L79.9519 19.4021Z" fill="#B5F041"/>
<path d="M57.5923 30.2393C58.0075 29.7826 58.6304 29.5542 59.3362 29.5542H73.4122C73.8274 29.5542 74.0766 29.4089 74.1596 29.1182C74.2842 28.8276 74.2011 28.5162 73.9105 28.184L70.9209 25.1321C70.6302 24.8415 70.2565 24.6961 69.7998 24.6961H60.5196C60.1044 24.6961 59.6892 24.8415 59.3985 25.1321L52.6097 31.0312C52.2775 31.3634 52.1114 31.7163 52.1114 32.09V35.738C52.1114 36.1533 52.2567 36.5062 52.5474 36.7969L59.3362 42.696C59.6269 42.9866 60.0006 43.1319 60.4573 43.1319H69.7375C70.1942 43.1319 70.5679 42.9866 70.8586 42.696L73.8482 39.6441C74.1388 39.3119 74.2219 39.0005 74.0973 38.7098C74.0143 38.4192 73.7651 38.2739 73.3499 38.2739H59.2739C57.7376 38.2739 56.9695 37.5057 56.9695 35.9694V31.921C56.9695 31.2151 57.1771 30.6546 57.5923 30.2393Z" fill="#B5F041"/>
<path d="M87.1478 42.4645V7.16255C87.1478 6.45668 86.9194 5.89613 86.4626 5.48091C86.0474 5.06569 85.4869 4.85808 84.781 4.85808H81.2931C80.8364 4.85808 80.608 4.62971 80.608 4.17297V0.685116C80.608 0.228372 80.8364 0 81.2931 0H83.5976C84.0544 0 84.4281 0.145328 84.7187 0.435983L91.4453 7.22484C91.7775 7.55701 91.9436 7.93071 91.9436 8.34593V42.4645C91.9436 42.9212 91.7152 43.1496 91.2584 43.1496H87.8329C87.3761 43.1496 87.1478 42.9212 87.1478 42.4645Z" fill="#B5F041"/>
<path d="M106.876 43.1319C106.42 43.1319 106.046 42.9866 105.755 42.696L98.9665 35.9071C98.6759 35.6164 98.5305 35.2427 98.5305 34.786V12.8624C98.5305 12.4056 98.7589 12.1772 99.2157 12.1772H102.704C103.119 12.1772 103.326 12.4056 103.326 12.8624V35.9694C103.326 36.6753 103.534 37.2358 103.949 37.651C104.406 38.0663 104.987 38.2739 105.693 38.2739H118.63C119.336 38.2739 119.917 38.0663 120.374 37.651C120.789 37.2358 120.997 36.6753 120.997 35.9694V12.8624C120.997 12.4056 121.204 12.1772 121.619 12.1772H125.107C125.564 12.1772 125.792 12.4056 125.792 12.8624V34.786C125.792 35.2427 125.647 35.6164 125.356 35.9071L118.567 42.696C118.277 42.9866 117.903 43.1319 117.446 43.1319H117.374H106.949H106.876Z" fill="#B5F041"/>
<path d="M131.343 23.7174L138.132 29.6165C138.422 29.9072 138.796 30.0525 139.253 30.0525L150.713 30.0525H150.837C151.543 30.0525 152.104 30.2601 152.519 30.6753C152.934 31.1321 153.142 31.7134 153.142 32.4192V35.9071C153.142 36.613 152.934 37.1735 152.519 37.5887C152.104 38.0455 151.543 38.2739 150.837 38.2739H138.505C137.799 38.2739 137.239 38.0455 136.824 37.5887C136.367 37.1735 136.139 36.613 136.139 35.9071V32.6684C136.139 32.2116 135.91 31.9833 135.453 31.9833H131.966C131.509 31.9833 131.28 32.2116 131.28 32.6684V35.6758C131.28 36.091 131.447 36.4647 131.779 36.7969L138.568 42.696C138.858 42.9866 139.232 43.1319 139.689 43.1319H149.654C150.069 43.1319 150.422 42.9866 150.713 42.696L157.502 36.7969C157.834 36.4647 158 36.1117 158 35.738V32.7129C158 32.2976 157.834 31.9239 157.502 31.5918L150.713 25.6927C150.422 25.402 150.048 25.2567 149.592 25.2567H138.007C137.301 25.2567 136.741 25.0491 136.325 24.6339C135.91 24.1771 135.703 23.5958 135.703 22.8899V19.4021C135.703 18.6962 135.91 18.1357 136.325 17.7204C136.741 17.2637 137.301 17.0353 138.007 17.0353H150.339C151.045 17.0353 151.606 17.2637 152.021 17.7204C152.477 18.1357 152.706 18.6962 152.706 19.4021V22.6408C152.706 23.0975 152.934 23.3259 153.391 23.3259H156.879C157.336 23.3259 157.564 23.0975 157.564 22.6408V20.5232C157.564 20.108 157.398 19.7343 157.066 19.4021L150.277 12.6132C149.986 12.3226 149.612 12.1772 149.156 12.1772H139.19C138.775 12.1772 138.422 12.3226 138.132 12.6132L131.343 18.5123C131.011 18.8445 130.844 19.1974 130.844 19.5711V22.5963C130.844 23.0115 131.011 23.3852 131.343 23.7174Z" fill="#B5F041"/>
<path d="M27.2829 1.57401L27.2829 27.5956C27.2829 29.1317 26.7859 30.3515 25.792 31.2551C24.8884 32.1586 23.6686 32.6104 22.1326 32.6104L14.5425 32.6104C13.5486 32.6104 13.0516 33.1074 13.0516 34.1013L13.0516 41.6913C13.0516 42.6853 13.5486 43.1822 14.5425 43.1822L19.5574 43.1822C20.5513 43.1822 21.3645 42.866 21.997 42.2335L36.6349 27.4601C37.3578 26.7372 37.7192 25.924 37.7192 25.0204L37.7192 1.57401C37.7192 0.58008 37.2222 0.0831129 36.2283 0.0831128L28.7738 0.0831122C27.7799 0.0831121 27.2829 0.580079 27.2829 1.57401Z" fill="#B5F041"/>
<path d="M10.4363 41.6914V15.6699C10.4363 14.1338 10.9333 12.914 11.9272 12.0104C12.8308 11.1068 14.0506 10.655 15.5867 10.655H23.1767C24.1706 10.655 24.6676 10.1581 24.6676 9.16413V1.57412C24.6676 0.580188 24.1706 0.0832214 23.1767 0.0832214H18.1619C17.1679 0.0832214 16.3547 0.399473 15.7222 1.03198L1.08435 15.8054C0.361488 16.5283 5.72205e-05 17.3415 5.72205e-05 18.245V41.6914C5.72205e-05 42.6854 0.497015 43.1823 1.49094 43.1823H8.94543C9.93936 43.1823 10.4363 42.6854 10.4363 41.6914Z" fill="#B5F041"/>
</svg>
