<svg width="24" height="25" viewBox="0 0 24 25" fill="none" xmlns="http://www.w3.org/2000/svg">
<path d="M8.79727 4.21232C8.52656 3.55841 7.81289 3.21036 7.13086 3.39669L4.03711 4.24044C3.42539 4.40919 3 4.96466 3 5.59747C3 14.2951 10.0523 21.3475 18.75 21.3475C19.3828 21.3475 19.9383 20.9221 20.107 20.3104L20.9508 17.2166C21.1371 16.5346 20.7891 15.8209 20.1352 15.5502L16.7602 14.144C16.1871 13.9049 15.5227 14.0701 15.1324 14.5518L13.7121 16.285C11.2371 15.1143 9.2332 13.1104 8.0625 10.6354L9.7957 9.21857C10.2773 8.82482 10.4426 8.16388 10.2035 7.59083L8.79727 4.21583V4.21232Z" fill="white"/>
</svg>
