<svg width="578" height="204" viewBox="0 0 578 204" fill="none" xmlns="http://www.w3.org/2000/svg">
<path d="M188.177 48.8562L70.492 48.8562C63.5449 48.8562 58.0281 51.1351 53.9416 55.6928C49.8551 59.8362 47.8119 65.4297 47.8119 72.4735V107.278C47.8119 111.836 45.5643 114.115 41.0692 114.115H6.74251C2.24734 114.115 -0.000243812 111.836 -0.000243866 107.278L-0.000244141 84.2821C-0.000244195 79.7244 1.43004 75.9954 4.29061 73.095L71.105 5.97216C74.3742 2.65745 78.052 1.0001 82.1385 1.0001L188.177 1.00009C192.673 1.00009 194.92 3.27893 194.92 7.83664V42.0196C194.92 46.5773 192.673 48.8562 188.177 48.8562Z" fill="url(#paint0_linear_40_697)"/>
<path d="M188.177 156.144H70.492C63.5449 156.144 58.0281 153.865 53.9416 149.308C49.8551 145.164 47.8119 139.571 47.8119 132.527V97.7225C47.8119 93.1647 45.5643 90.8859 41.0692 90.8859H6.74251C2.24734 90.8859 -0.000243812 93.1647 -0.000243866 97.7225L-0.000244141 120.718C-0.000244195 125.276 1.43004 129.005 4.29061 131.905L71.105 199.028C74.3742 202.343 78.052 204 82.1385 204L188.177 204C192.673 204 194.92 201.721 194.92 197.164V162.981C194.92 158.423 192.673 156.144 188.177 156.144Z" fill="url(#paint1_linear_40_697)"/>
<path d="M570.5 1.0001C574.366 1.0001 577.5 4.13411 577.5 8.0001V42.0001C577.5 45.8661 574.366 49.0001 570.5 49.0001L188.177 48.8562C184.311 48.8562 181.177 45.7221 181.177 41.8561V7.85609C181.177 3.9901 184.311 0.856091 188.177 0.856091L570.5 1.0001Z" fill="url(#paint2_linear_40_697)"/>
<defs>
<linearGradient id="paint0_linear_40_697" x1="578" y1="13" x2="236.499" y2="204" gradientUnits="userSpaceOnUse">
<stop stop-color="white"/>
<stop offset="1" stop-color="#B287FD"/>
</linearGradient>
<linearGradient id="paint1_linear_40_697" x1="578" y1="13" x2="236.499" y2="204" gradientUnits="userSpaceOnUse">
<stop stop-color="white"/>
<stop offset="1" stop-color="#B287FD"/>
</linearGradient>
<linearGradient id="paint2_linear_40_697" x1="578" y1="13" x2="236.499" y2="204" gradientUnits="userSpaceOnUse">
<stop stop-color="white"/>
<stop offset="1" stop-color="#B287FD"/>
</linearGradient>
</defs>
</svg>
