<svg width="884" height="203" viewBox="0 0 884 203" fill="none" xmlns="http://www.w3.org/2000/svg">
<path d="M695.742 47.8561L813.427 47.8561C820.374 47.8561 825.891 50.135 829.978 54.6927C834.064 58.8361 836.107 64.4296 836.107 71.4734V106.278C836.107 110.836 838.355 113.114 842.85 113.114H877.177C881.672 113.114 883.919 110.836 883.919 106.278V83.2821C883.919 78.7243 882.489 74.9953 879.629 72.0949L812.814 4.97207C809.545 1.65736 805.867 1.46726e-06 801.781 1.41852e-06L695.742 1.54024e-07C691.247 1.0042e-07 688.999 2.27884 688.999 6.83655V41.0195C688.999 45.5772 691.247 47.8561 695.742 47.8561Z" fill="url(#paint0_linear_40_689)"/>
<path d="M695.742 155.144H813.427C820.374 155.144 825.891 152.865 829.978 148.308C834.064 144.164 836.107 138.571 836.107 131.527V96.7224C836.107 92.1647 838.355 89.8858 842.85 89.8858H877.177C881.672 89.8858 883.919 92.1647 883.919 96.7224V119.718C883.919 124.276 882.489 128.005 879.629 130.905L812.814 198.028C809.545 201.343 805.867 203 801.781 203L695.742 203C691.247 203 688.999 200.721 688.999 196.164V161.981C688.999 157.423 691.247 155.144 695.742 155.144Z" fill="url(#paint1_linear_40_689)"/>
<path d="M690.999 8.03781e-06C694.865 8.08324e-06 697.999 3.13402 697.999 7.00001V41C697.999 44.866 694.865 48 690.999 48L6.99903 48C3.13303 48 -0.000977191 44.866 -0.000976562 41L-0.000971034 7C-0.000970406 3.13401 3.13304 -4.54291e-08 6.99903 0L690.999 8.03781e-06Z" fill="url(#paint2_linear_40_689)"/>
<defs>
<linearGradient id="paint0_linear_40_689" x1="441.959" y1="0" x2="441.959" y2="203" gradientUnits="userSpaceOnUse">
<stop stop-color="#B7F040"/>
<stop offset="1" stop-color="white"/>
</linearGradient>
<linearGradient id="paint1_linear_40_689" x1="441.959" y1="0" x2="441.959" y2="203" gradientUnits="userSpaceOnUse">
<stop stop-color="#B7F040"/>
<stop offset="1" stop-color="white"/>
</linearGradient>
<linearGradient id="paint2_linear_40_689" x1="441.959" y1="0" x2="441.959" y2="203" gradientUnits="userSpaceOnUse">
<stop stop-color="#B7F040"/>
<stop offset="1" stop-color="white"/>
</linearGradient>
</defs>
</svg>
