<svg width="56" height="64" viewBox="0 0 56 64" fill="none" xmlns="http://www.w3.org/2000/svg">
<path d="M40.3507 2.20502L40.3507 40.6908C40.3507 42.9627 39.6157 44.7668 38.1457 46.1032C36.8093 47.4396 35.0052 48.1078 32.7334 48.1078L21.5078 48.1077C20.0377 48.1077 19.3027 48.8428 19.3027 50.3128L19.3027 61.5384C19.3027 63.0084 20.0377 63.7434 21.5078 63.7434L28.9247 63.7434C30.3947 63.7434 31.5974 63.2757 32.5329 62.3402L54.1823 40.4904C55.2514 39.4213 55.7859 38.2185 55.7859 36.8822L55.7859 2.20502C55.7859 0.735008 55.0509 -1.21336e-05 53.5809 -1.22621e-05L42.5558 -1.32259e-05C41.0858 -1.33545e-05 40.3507 0.735006 40.3507 2.20502Z" fill="#D4F134"/>
<path d="M15.4344 61.5386V23.0528C15.4344 20.781 16.1694 18.9769 17.6394 17.6405C18.9758 16.3041 20.7799 15.6359 23.0518 15.6359H34.2774C35.7474 15.6359 36.4824 14.9009 36.4824 13.4309V2.20528C36.4824 0.735256 35.7474 0.000244141 34.2774 0.000244141H26.8605C25.3905 0.000244141 24.1877 0.467979 23.2522 1.40345L1.60288 23.2533C0.533775 24.3224 -0.000782013 25.5251 -0.000782013 26.8615V61.5386C-0.000782013 63.0086 0.734219 63.7437 2.20424 63.7437H13.2294C14.6994 63.7437 15.4344 63.0086 15.4344 61.5386Z" fill="#D4F134"/>
</svg>
