<svg width="717" height="789" viewBox="0 0 717 789" fill="none" xmlns="http://www.w3.org/2000/svg">
<path d="M53.4431 36.2061L53.4431 668.135C53.4431 705.438 65.5119 735.061 89.6492 757.004C111.592 778.947 141.215 789.919 178.519 789.919L362.841 789.919C386.978 789.919 399.047 801.988 399.047 826.125L399.047 1010.45C399.047 1034.58 386.978 1046.65 362.841 1046.65L241.057 1046.65C216.919 1046.65 197.17 1038.97 181.81 1023.61L-173.668 664.843C-191.222 647.289 -199.999 627.54 -199.999 605.597L-200 36.2062C-200 12.0688 -187.931 -7.07551e-05 -163.794 -7.28652e-05L17.237 -8.86914e-05C41.3743 -9.08016e-05 53.4431 12.0688 53.4431 36.2061Z" fill="#706F74" fill-opacity="0.19"/>
<path d="M462.559 1010.45V378.518C462.559 341.215 450.49 311.592 426.353 289.649C404.41 267.706 374.786 256.734 337.483 256.734H153.161C129.024 256.734 116.955 244.666 116.955 220.528V36.2065C116.955 12.069 129.024 0.000244141 153.161 0.000244141H274.945C299.083 0.000244141 318.832 7.68036 334.192 23.0406L689.67 381.81C707.224 399.364 716.001 419.113 716.001 441.056V1010.45C716.001 1034.58 703.933 1046.65 679.796 1046.65H498.765C474.628 1046.65 462.559 1034.58 462.559 1010.45Z" fill="#706F74" fill-opacity="0.19"/>
</svg>
