<svg width="9" height="8" viewBox="0 0 9 8" fill="none" xmlns="http://www.w3.org/2000/svg">
<path d="M0.186517 4.18992C0.0621722 4.18992 0 4.13601 0 4.0282V3.20492C0 3.09711 0.0621722 3.0432 0.186517 3.0432H2.79775C2.98992 3.0432 3.14252 2.9942 3.25556 2.89619C3.37991 2.78838 3.44208 2.65117 3.44208 2.48455V0.161716C3.44208 0.0539051 3.4986 0 3.61164 0H4.56118C4.68552 0 4.7477 0.0539051 4.7477 0.161716V2.20522C4.7477 2.31303 4.70813 2.40124 4.629 2.46985L2.78079 4.07231C2.69036 4.15071 2.58862 4.18992 2.47558 4.18992H0.186517ZM7.93543 3.05791C8.05978 3.05791 8.12195 3.11181 8.12195 3.21962V4.0282C8.12195 4.13601 8.05978 4.18992 7.93543 4.18992H5.3242C5.13203 4.18992 4.97378 4.24382 4.84943 4.35163C4.73639 4.44965 4.67987 4.58196 4.67987 4.74858V7.11551C4.67987 7.22332 4.6177 7.27723 4.49335 7.27723H3.54382C3.43078 7.27723 3.37425 7.22332 3.37425 7.11551V5.0279C3.37425 4.92989 3.41382 4.84168 3.49295 4.76328L5.34116 3.17552C5.42029 3.09711 5.51637 3.05791 5.62941 3.05791H7.93543Z" fill="#B5F041"/>
</svg>
