<svg width="50" height="44" viewBox="0 0 50 44" fill="none" xmlns="http://www.w3.org/2000/svg">
<g opacity="0.05">
<path d="M48.2705 31.7716L18.0825 31.7716C16.3005 31.7716 14.8854 31.1951 13.8371 30.042C12.7889 28.9938 12.2648 27.5786 12.2648 25.7966L12.2648 16.9913C12.2648 15.8383 11.6882 15.2617 10.5352 15.2617L1.72987 15.2617C0.576798 15.2617 0.000259374 15.8383 0.000259324 16.9913L0.00025907 22.8091C0.000259019 23.9622 0.367147 24.9056 1.10092 25.6394L18.2398 42.621C19.0784 43.4596 20.0218 43.8789 21.07 43.8789L48.2705 43.8789C49.4236 43.8789 50.0001 43.3023 50.0001 42.1493L50.0001 33.5012C50.0001 32.3482 49.4236 31.7716 48.2705 31.7716Z" fill="black"/>
<path d="M1.72979 12.2274L31.9178 12.2274C33.6998 12.2274 35.1149 12.8039 36.1632 13.957C37.2114 15.0053 37.7356 16.4204 37.7356 18.2024L37.7356 27.0077C37.7356 28.1608 38.3121 28.7373 39.4652 28.7373L48.2704 28.7373C49.4235 28.7373 50 28.1608 50 27.0077L50 21.1899C50 20.0368 49.6332 19.0934 48.8994 18.3596L31.7605 1.37805C30.9219 0.539449 29.9785 0.120147 28.9303 0.120147L1.72979 0.120148C0.57672 0.120148 0.000178065 0.696678 0.000178115 1.84975L0.000178493 10.4978C0.000178544 11.6509 0.57672 12.2274 1.72979 12.2274Z" fill="black"/>
</g>
</svg>
