<svg width="28" height="29" viewBox="0 0 28 29" fill="none" xmlns="http://www.w3.org/2000/svg">
<path d="M8.31249 5.16016C8.31249 4.43418 8.89902 3.84766 9.62499 3.84766H20.125C20.851 3.84766 21.4375 4.43418 21.4375 5.16016C21.4375 5.88613 20.851 6.47266 20.125 6.47266H18.915L19.3826 12.5512C20.8879 13.3674 22.0773 14.7332 22.6434 16.4354L22.6844 16.5584C22.8197 16.9604 22.75 17.3992 22.5039 17.7396C22.2578 18.0801 21.86 18.2852 21.4375 18.2852H8.31249C7.89003 18.2852 7.49628 18.0842 7.24609 17.7396C6.99589 17.3951 6.93027 16.9563 7.06562 16.5584L7.10663 16.4354C7.67265 14.7332 8.8621 13.3674 10.3674 12.5512L10.835 6.47266H9.62499C8.89902 6.47266 8.31249 5.88613 8.31249 5.16016ZM13.5625 19.5977H16.1875V23.5352C16.1875 24.2611 15.601 24.8477 14.875 24.8477C14.149 24.8477 13.5625 24.2611 13.5625 23.5352V19.5977Z" fill="white"/>
</svg>
